<svg width="256.533740234375px" height="81.19999999999999px" xmlns="http://www.w3.org/2000/svg" viewBox="121.7331298828125 34.400000000000006 256.533740234375 81.19999999999999" style="background: rgb(253, 253, 253);" preserveAspectRatio="xMidYMid"><defs><linearGradient id="editing-sticker-gradient" x1="0.5" y1="0.2" x2="0.5" y2="0.8"><stop offset="0" stop-color="#85a2b6"></stop><stop offset="1" stop-color="#bbcedd"></stop></linearGradient><filter id="editing-sticker" x="-100%" y="-100%" width="300%" height="300%"><feMorphology operator="erode" radius="1" in="SourceAlpha" result="alpha-erode"></feMorphology><feConvolveMatrix order="3,3" divisor="1" kernelMatrix="0 1 0 1 1 1 0 1 0" in="alpha-erode" result="alpha-round"></feConvolveMatrix><feMorphology operator="dilate" radius="3.5" in="alpha-round" result="dilate-shadow"></feMorphology><feGaussianBlur in="dilate-shadow" stdDeviation="1.5" result="shadow"></feGaussianBlur><feFlood flood-color="#fff" result="flood-sticker"></feFlood><feComposite operator="in" in="flood-sticker" in2="alpha-round" result="comp-sticker"></feComposite><feMorphology operator="dilate" radius="3" in="comp-sticker" result="morph-sticker"></feMorphology><feConvolveMatrix order="3,3" divisor="1" kernelMatrix="0 1 0 1 1 1 0 1 0" in="morph-sticker" result="sticker"></feConvolveMatrix><feMerge><feMergeNode in="shadow"></feMergeNode><feMergeNode in="sticker"></feMergeNode><feMergeNode in="SourceGraphic"></feMergeNode></feMerge></filter></defs><g filter="url(#editing-sticker)"><g transform="translate(164.32905668020248, 88.67250061035156)"><path d="M22.79-0.97L22.79-0.97L22.79-0.97Q22.79 1.44 25.20 1.44L25.20 1.44L25.20 1.44Q28.44 1.44 33.01-3.24L33.01-3.24L33.01-3.24Q37.15-7.42 39.33-11.75L39.33-11.75L39.33-11.75Q41.51-16.09 41.51-18.36L41.51-18.36L41.51-18.36Q41.51-18.72 41.44-19.08L41.44-19.08L41.44-19.08Q40.64-19.08 39.82-19.91L39.82-19.91L39.82-19.87L39.82-19.87Q39.28-20.30 39.28-20.75L39.28-20.75L39.28-20.75Q39.28-21.20 39.64-21.49L39.64-21.49L39.64-21.49Q40.00-21.78 40.57-21.78L40.57-21.78L40.57-21.78Q41.15-21.78 41.38-21.33L41.38-21.33L41.38-21.33Q41.62-20.88 41.98-20.52L41.98-20.52L41.98-20.52Q42.34-20.16 42.30-20.02L42.30-20.02L42.30-20.02Q42.52-19.69 42.97-19.69L42.97-19.69L42.97-19.69Q43.42-19.69 43.99-20.12L43.99-20.12L43.99-20.12Q44.57-20.56 44.91-20.56L44.91-20.56L44.91-20.56Q45.25-20.56 45.25-20.34L45.25-20.34L45.25-20.34Q45.25-19.94 44.57-19.58L44.57-19.58L44.57-19.58Q44.21-19.30 43.70-19.26L43.70-19.26L42.55-19.26L42.55-19.26Q42.98-17.78 42.98-17.14L42.98-17.14L42.98-17.14Q42.98-14.26 40.23-9.65L40.23-9.65L40.23-9.65Q37.48-5.04 33.16-1.48L33.16-1.48L33.16-1.48Q28.80 2.20 25.25 2.20L25.25 2.20L25.25 2.20Q21.71 2.20 21.71-1.26L21.71-1.26L21.71-1.26Q21.71-4.00 24.01-9.07L24.01-9.07L26.60-14.72L23.08-11.99L23.08-11.99Q21.42-10.62 19.71-8.98L19.71-8.98L19.71-8.98Q18.00-7.34 13.75-2.23L13.75-2.23L9.58 2.88L9.58 2.88Q8.57 4.03 7.78 4.03L7.78 4.03L7.78 4.03Q7.16 4.03 7.16 3.24L7.16 3.24L7.16 3.24Q7.16 2.45 7.81 1.19L7.81 1.19L14.76-8.82L14.76-8.82Q21.06-18.07 21.06-20.56L21.06-20.56L21.06-20.56Q21.06-21.92 18.54-21.92L18.54-21.92L18.54-21.92Q15.48-21.92 10.01-18.18L10.01-18.18L10.01-18.18Q7.06-16.16 4.82-13.12L4.82-13.12L4.82-13.12Q2.59-10.08 2.59-8.08L2.59-8.08L2.59-8.08Q2.59-6.08 5.26-6.08L5.26-6.08L5.26-6.08Q7.74-6.08 10.37-8.39L10.37-8.39L10.37-8.39Q11.30-9.18 11.45-9.18L11.45-9.18L11.45-9.18Q11.59-9.18 11.56-8.93L11.56-8.93L11.56-8.93Q11.16-7.56 8.62-6.32L8.62-6.32L8.62-6.32Q6.08-5.08 4.14-5.08L4.14-5.08L4.14-5.08Q3.64-5.08 3.46-5.11L3.46-5.11L3.42-5.11L3.42-5.11Q0.54-5.72 0.54-7.96L0.54-7.96L0.54-7.96Q0.54-10.19 3.02-13.32L3.02-13.32L3.02-13.32Q7.42-18.86 14.33-21.56L14.33-21.56L14.33-21.56Q17.89-22.93 20.20-22.93L20.20-22.93L20.20-22.93Q23.04-22.93 23.04-21.06L23.04-21.06L23.04-21.06Q23.04-17.17 13.25-4.18L13.25-4.18L13.25-4.18Q9.97 0.18 9.94 0.18L9.94 0.18L9.94 0.18Q10.04 0.18 13.70-3.89L13.70-3.89L13.70-3.89Q17.35-7.96 20.63-10.84L20.63-10.84L20.63-10.84Q21.89-11.95 24.98-14.94L24.98-14.94L24.98-14.94Q26.60-16.45 28.48-17.68L28.48-17.68L28.48-17.68Q28.94-17.96 29.83-17.96L29.83-17.96L29.83-17.96Q30.71-17.96 31.03-17.46L31.03-17.46L31.03-17.46Q27.72-13.36 25.25-8.26L25.25-8.26L25.25-8.26Q22.79-3.17 22.79-0.97ZM43.74-19.26L43.70-19.26L43.74-19.26ZM52.81-10.76L52.81-10.76L53.32-10.87L53.32-10.87Q53.71-10.87 54.07-10.55L54.07-10.55L54.07-10.55Q54.43-10.22 54.43-10.04L54.43-10.04L54.43-10.04Q54.43-9.86 52.20-6.57L52.20-6.57L52.20-6.57Q49.97-3.28 49.97-1.98L49.97-1.98L49.97-1.98Q49.97-1.87 50.00-1.76L50.00-1.76L50.00-1.76Q50.18-0.94 50.80-0.94L50.80-0.94L50.80-0.94Q52.67-0.94 57.64-7.13L57.64-7.13L57.64-7.13Q57.74-7.27 57.89-7.27L57.89-7.27L57.89-7.27Q58.03-7.27 58.03-7.00L58.03-7.00L58.03-7.00Q58.03-6.73 57.71-6.30L57.71-6.30L57.71-6.30Q53.10-0.14 50.69-0.14L50.69-0.14L50.69-0.14Q50.36-0.14 50.08-0.25L50.08-0.25L50.08-0.25Q48.49-0.86 48.49-2.63L48.49-2.63L48.49-2.63Q48.49-3.24 48.64-3.85L48.64-3.85L46.40-1.69L46.40-1.69Q44.28 0.18 43.33 0.18L43.33 0.18L43.33 0.18Q42.37 0.18 41.51-0.43L41.51-0.43L41.51-0.43Q40.54-1.15 40.54-2.34L40.54-2.34L40.54-2.34Q40.54-4.97 44.21-8.62L44.21-8.62L44.21-8.62Q47.88-12.28 50.94-12.28L50.94-12.28L50.94-12.28Q52.13-12.28 52.52-11.45L52.52-11.45L52.52-11.45Q52.63-11.16 52.70-10.96L52.70-10.96L52.70-10.96Q52.78-10.76 52.81-10.76ZM42.05-1.91L42.05-1.91L42.05-1.91Q42.05-0.61 42.95-0.61L42.95-0.61L42.95-0.61Q45.04-0.61 48.64-5.18L48.64-5.18L52.45-10.44L52.45-10.44Q52.16-10.94 51.52-10.94L51.52-10.94L51.52-10.94Q49.32-10.94 45.68-7.54L45.68-7.54L45.68-7.54Q42.05-4.14 42.05-1.91ZM63.47-1.30L62.32-0.54L62.32-0.54Q61.27 0.07 59.74 0.07L59.74 0.07L59.74 0.07Q58.21 0.07 57.40-0.94L57.40-0.94L57.40-0.94Q56.59-1.94 56.02-4.14L56.02-4.14L56.02-4.14Q55.37-3.49 55.12-3.49L55.12-3.49L55.12-3.49Q54.94-3.49 54.94-3.74L54.94-3.74L54.94-3.74Q54.94-4.00 55.12-4.18L55.12-4.18L55.12-4.18Q56.30-5.65 59.15-8.42L59.15-8.42L63.68-12.67L63.68-12.67Q65.63-14.51 65.99-14.51L65.99-14.51L65.99-14.51Q67.14-14.51 67.14-13.64L67.14-13.64L67.14-13.64Q67.14-13.21 66.80-12.80L66.80-12.80L66.80-12.80Q66.46-12.38 66.29-12.15L66.29-12.15L66.29-12.15Q66.13-11.92 65.95-11.70L65.95-11.70L65.95-11.70Q65.30-10.58 64.64-7.09L64.64-7.09L64.64-7.09Q63.97-3.60 63.61-2.23L63.61-2.23L63.61-2.23Q66.60-2.27 69.77-6.12L69.77-6.12L69.77-6.12Q70.13-6.48 70.31-6.48L70.31-6.48L70.31-6.48Q70.49-6.48 70.49-6.25L70.49-6.25L70.49-6.25Q70.49-6.01 70.16-5.62L70.16-5.62L70.16-5.62Q68.08-3.17 66.28-2.20L66.28-2.20L66.28-2.20Q65.20-1.66 63.47-1.30L63.47-1.30ZM57.46-4.54L57.46-4.54L57.46-4.54Q57.46-3.31 58.27-2.54L58.27-2.54L58.27-2.54Q59.08-1.76 60.08-1.76L60.08-1.76L60.08-1.76Q61.09-1.76 61.63-2.16L61.63-2.16L61.63-2.16Q62.35-2.56 63.05-5.47L63.05-5.47L63.05-5.47Q63.76-8.39 63.90-10.62L63.90-10.62L64.04-11.84L64.04-11.84Q62.06-10.37 59.81-8.03L59.81-8.03L59.81-8.03Q57.56-5.69 57.49-4.93L57.49-4.93L57.49-4.93Q57.46-4.72 57.46-4.54ZM76.43-14.69L76.43-14.69Q76.97-14.69 77.45-14.35L77.45-14.35L77.45-14.35Q77.94-14.00 77.94-13.54L77.94-13.54L77.94-13.54Q77.94-13.07 77.49-12.73L77.49-12.73L77.49-12.73Q77.04-12.38 76.50-12.38L76.50-12.38L76.50-12.38Q75.96-12.38 75.51-12.78L75.51-12.78L75.51-12.78Q75.06-13.18 75.06-13.68L75.06-13.68L75.06-13.68Q75.06-14.69 76.43-14.69L76.43-14.69ZM69.91 0.40L69.91 0.40L69.91 0.40Q68.08 0.40 68.08-1.98L68.08-1.98L68.08-1.98Q68.08-3.92 70.20-7.36L70.20-7.36L70.20-7.36Q72.32-10.80 73.62-10.84L73.62-10.84L73.62-10.84Q73.98-10.84 74.43-10.55L74.43-10.55L74.43-10.55Q74.88-10.26 74.88-9.97L74.88-9.97L74.88-9.97Q74.70-9.72 74.45-9.41L74.45-9.41L74.45-9.41Q74.20-9.11 73.91-8.75L73.91-8.75L73.91-8.75Q73.62-8.39 73.12-7.72L73.12-7.72L73.12-7.72Q72.61-7.06 72.14-6.44L72.14-6.44L72.14-6.44Q69.44-2.95 69.44-1.64L69.44-1.64L69.44-1.64Q69.44-0.32 70.34-0.32L70.34-0.32L70.34-0.32Q71.10-0.32 72.40-1.15L72.40-1.15L72.40-1.15Q75.42-3.02 77.18-5.26L77.18-5.26L77.18-5.26Q77.83-6.08 78.07-6.08L78.07-6.08L78.07-6.08Q78.30-6.08 78.30-5.80L78.30-5.80L78.30-5.80Q78.30-5.51 77.47-4.64L77.47-4.64L77.47-4.64Q76.64-3.78 76.16-3.28L76.16-3.28L76.16-3.28Q75.67-2.77 75.49-2.61L75.49-2.61L75.49-2.61Q75.31-2.45 74.83-2.00L74.83-2.00L74.83-2.00Q74.34-1.55 74.09-1.37L74.09-1.37L74.09-1.37Q73.84-1.19 73.37-0.83L73.37-0.83L73.37-0.83Q72.90-0.47 72.54-0.31L72.54-0.31L72.54-0.31Q72.18-0.14 71.71 0.07L71.71 0.07L71.71 0.07Q70.96 0.40 69.91 0.40ZM99.11-1.48L99.11-1.48L99.11-1.48Q98.24-0.14 98.24 0.25L98.24 0.25L98.24 0.25Q98.24 0.65 98.57 0.83L98.57 0.83L98.57 0.83Q98.57 0.86 97.92 1.37L97.92 1.37L97.92 1.37Q97.34 1.66 96.62 1.66L96.62 1.66L96.62 1.66Q95.90 1.66 95.58 1.49L95.58 1.49L95.58 1.49Q95.26 1.33 95.36 0.97L95.36 0.97L95.36 0.97Q95.87-0.65 99.14-5.53L99.14-5.53L99.14-5.53Q102.42-10.40 103.54-12.42L103.54-12.42L103.54-12.42Q105.95-16.78 105.95-19.37L105.95-19.37L105.95-19.37Q105.95-20.45 105.59-21.20L105.59-21.20L105.59-21.20Q104.87-22.68 102.17-22.68L102.17-22.68L102.17-22.68Q97.96-22.68 93.46-19.04L93.46-19.04L93.46-19.04Q89.86-16.13 87.95-12.87L87.95-12.87L87.95-12.87Q86.04-9.61 86.04-7.06L86.04-7.06L86.04-7.06Q86.04-3.38 89.28-3.31L89.28-3.31L89.28-3.31Q89.42-3.31 89.57-3.31L89.57-3.31L89.57-3.31Q93.71-3.31 95.98-6.30L95.98-6.30L95.98-6.30Q96.84-7.49 96.84-8.32L96.84-8.32L96.84-8.32Q96.84-9.14 96.48-9.36L96.48-9.36L96.48-9.36Q96.44-9.40 96.44-9.50L96.44-9.50L96.44-9.50Q96.44-9.61 96.66-9.61L96.66-9.61L96.66-9.61Q97.60-9.61 97.60-8.39L97.60-8.39L97.60-8.39Q97.60-7.63 96.86-6.34L96.86-6.34L96.86-6.34Q96.12-5.04 94.25-3.89L94.25-3.89L94.25-3.89Q92.38-2.74 89.89-2.74L89.89-2.74L89.89-2.74Q87.41-2.74 85.93-4.28L85.93-4.28L85.93-4.28Q84.46-5.83 84.46-8.35L84.46-8.35L84.46-8.35Q84.46-14.04 91.87-19.98L91.87-19.98L91.87-19.98Q93.78-21.49 96.89-22.46L96.89-22.46L96.89-22.46Q100.01-23.44 102.85-23.44L102.85-23.44L102.85-23.44Q105.70-23.44 106.72-22.45L106.72-22.45L106.72-22.45Q107.75-21.46 107.75-19.80L107.75-19.80L107.75-19.80Q107.75-17.28 105.70-13.00L105.70-13.00L105.70-13.00Q105.05-11.66 102.78-8.14L102.78-8.14L105.55-11.66L105.55-11.66Q107.57-14.29 112.54-19.15L112.54-19.15L112.54-19.15Q113.62-20.20 114.93-20.90L114.93-20.90L114.93-20.90Q116.24-21.60 117.18-21.60L117.18-21.60L117.18-21.60Q118.48-21.60 118.48-20.23L118.48-20.23L118.48-20.23Q118.48-19.04 117.34-16.65L117.34-16.65L117.34-16.65Q116.21-14.26 115.06-12.11L115.06-12.11L115.06-12.11Q113.90-9.97 113.65-9.31L113.65-9.31L113.65-9.31Q113.40-8.64 113.29-8.24L113.29-8.24L113.29-8.24Q113.18-7.85 113.15-7.81L113.15-7.81L113.15-7.81Q113.26-7.99 115.52-10.57L115.52-10.57L115.52-10.57Q117.79-13.14 122.22-16.99L122.22-16.99L127.98-21.74L127.98-21.74Q128.66-22.32 129.20-22.32L129.20-22.32L129.20-22.32Q129.74-22.32 130.09-21.42L130.09-21.42L130.09-21.42Q130.43-20.52 130.43-19.96L130.43-19.96L130.43-19.96Q130.43-19.40 128.70-17.64L128.70-17.64L128.70-17.64Q124.20-13.03 121.07-7.56L121.07-7.56L121.07-7.56Q117.94-2.09 117.94 0.25L117.94 0.25L117.94 0.25Q117.94 0.86 118.15 1.10L118.15 1.10L118.15 1.10Q118.37 1.33 118.84 1.24L118.84 1.24L118.84 1.24Q119.30 1.15 120.80 0.50L120.80 0.50L120.80 0.50Q122.29-0.14 122.76-0.25L122.76-0.25L122.76-0.25Q122.94-0.18 122.94-0.07L122.94-0.07L122.94-0.07Q122.94 0.47 121.05 1.44L121.05 1.44L121.05 1.44Q119.16 2.41 118.21 2.41L118.21 2.41L118.21 2.41Q117.25 2.41 117.04 2.09L117.04 2.09L117.04 2.09Q116.39 1.15 116.39-0.18L116.39-0.18L116.39-0.18Q116.39-3.28 119.70-9.07L119.70-9.07L119.70-9.07Q121.82-12.71 126.25-18.86L126.25-18.86L126.25-18.86Q122.80-16.06 116.89-10.26L116.89-10.26L116.89-10.26Q110.99-4.46 109.15-1.19L109.15-1.19L109.15-1.19Q108.22 0.50 106.88 0.50L106.88 0.50L106.88 0.50Q106.27 0.50 106.27 0.07L106.27 0.07L106.27 0.07Q106.27-0.07 107.01-1.22L107.01-1.22L107.01-1.22Q107.75-2.38 110.27-6.62L110.27-6.62L110.27-6.62Q116.46-17.39 116.46-19.58L116.46-19.58L116.46-19.58Q116.46-20.16 116.06-20.16L116.06-20.16L116.06-20.16Q115.49-20.16 114.37-19.19L114.37-19.19L114.37-19.19Q110.38-15.84 105.88-10.44L105.88-10.44L105.88-10.44Q101.38-5.04 99.11-1.48ZM134.86 0.22L134.86 0.22L134.86 0.22Q134.68 0.25 134.08 0.25L134.08 0.25L134.08 0.25Q133.49 0.25 132.89-0.22L132.89-0.22L132.89-0.22Q132.30-0.68 132.30-1.42L132.30-1.42L132.30-1.42Q132.30-2.16 132.57-3.06L132.57-3.06L132.57-3.06Q132.84-3.96 132.95-4.43L132.95-4.43L132.95-4.43Q128.81 0.40 126.47 0.40L126.47 0.40L126.47 0.40Q124.99 0.40 124.85-1.44L124.85-1.44L124.85-1.44Q124.85-1.58 124.85-1.69L124.85-1.69L124.85-1.69Q124.85-3.24 126.72-5.87L126.72-5.87L126.72-5.87Q125.68-4.93 124.60-3.71L124.60-3.71L124.60-3.71Q124.45-3.56 124.24-3.56L124.24-3.56L124.24-3.56Q124.09-3.56 124.09-3.74L124.09-3.74L124.09-3.74Q124.09-3.92 124.42-4.36L124.42-4.36L129.38-10.19L129.38-10.19Q130.32-11.27 131.29-11.27L131.29-11.27L131.29-11.27Q132.26-11.27 132.26-10.62L132.26-10.62L132.26-10.62Q132.26-10.37 132.05-10.15L132.05-10.15L132.05-10.15Q130.61-8.82 128.43-5.72L128.43-5.72L128.43-5.72Q126.25-2.63 126.25-1.15L126.25-1.15L126.25-1.15Q126.25-0.50 126.68-0.50L126.68-0.50L126.68-0.50Q128.20-0.50 131.08-3.49L131.08-3.49L131.08-3.49Q132.08-4.50 134.82-7.94L134.82-7.94L134.82-7.94Q137.56-11.38 138.42-11.38L138.42-11.38L138.42-11.38Q139.72-11.38 139.72-10.37L139.72-10.37L139.72-10.37Q139.72-10.01 138.20-8.28L138.20-8.28L138.20-8.28Q136.15-5.80 135.07-4.23L135.07-4.23L135.07-4.23Q133.99-2.66 133.99-1.69L133.99-1.69L133.99-1.69Q133.99-0.72 134.53-0.72L134.53-0.72L134.53-0.72Q134.78-0.72 135.11-0.86L135.11-0.86L135.11-0.86Q137.59-1.94 141.05-5.90L141.05-5.90L141.05-5.90Q141.26-6.16 141.48-6.16L141.48-6.16L141.48-6.16Q141.70-6.16 141.70-5.92L141.70-5.92L141.70-5.92Q141.70-5.69 141.44-5.40L141.44-5.40L141.44-5.40Q139.90-3.60 137.81-1.78L137.81-1.78L137.81-1.78Q135.72 0.04 134.86 0.22ZM147.85-1.30L146.70-0.54L146.70-0.54Q145.66 0.07 144.13 0.07L144.13 0.07L144.13 0.07Q142.60 0.07 141.79-0.94L141.79-0.94L141.79-0.94Q140.98-1.94 140.40-4.14L140.40-4.14L140.40-4.14Q139.75-3.49 139.50-3.49L139.50-3.49L139.50-3.49Q139.32-3.49 139.32-3.74L139.32-3.74L139.32-3.74Q139.32-4.00 139.50-4.18L139.50-4.18L139.50-4.18Q140.69-5.65 143.53-8.42L143.53-8.42L148.07-12.67L148.07-12.67Q150.01-14.51 150.37-14.51L150.37-14.51L150.37-14.51Q151.52-14.51 151.52-13.64L151.52-13.64L151.52-13.64Q151.52-13.21 151.18-12.80L151.18-12.80L151.18-12.80Q150.84-12.38 150.68-12.15L150.68-12.15L150.68-12.15Q150.52-11.92 150.34-11.70L150.34-11.70L150.34-11.70Q149.69-10.58 149.02-7.09L149.02-7.09L149.02-7.09Q148.36-3.60 148.00-2.23L148.00-2.23L148.00-2.23Q150.98-2.27 154.15-6.12L154.15-6.12L154.15-6.12Q154.51-6.48 154.69-6.48L154.69-6.48L154.69-6.48Q154.87-6.48 154.87-6.25L154.87-6.25L154.87-6.25Q154.87-6.01 154.55-5.62L154.55-5.62L154.55-5.62Q152.46-3.17 150.66-2.20L150.66-2.20L150.66-2.20Q149.58-1.66 147.85-1.30L147.85-1.30ZM141.84-4.54L141.84-4.54L141.84-4.54Q141.84-3.31 142.65-2.54L142.65-2.54L142.65-2.54Q143.46-1.76 144.47-1.76L144.47-1.76L144.47-1.76Q145.48-1.76 146.02-2.16L146.02-2.16L146.02-2.16Q146.74-2.56 147.44-5.47L147.44-5.47L147.44-5.47Q148.14-8.39 148.28-10.62L148.28-10.62L148.43-11.84L148.43-11.84Q146.45-10.37 144.20-8.03L144.20-8.03L144.20-8.03Q141.95-5.69 141.88-4.93L141.88-4.93L141.88-4.93Q141.84-4.72 141.84-4.54ZM160.81-14.69L160.81-14.69Q161.35-14.69 161.84-14.35L161.84-14.35L161.84-14.35Q162.32-14.00 162.32-13.54L162.32-13.54L162.32-13.54Q162.32-13.07 161.87-12.73L161.87-12.73L161.87-12.73Q161.42-12.38 160.88-12.38L160.88-12.38L160.88-12.38Q160.34-12.38 159.89-12.78L159.89-12.78L159.89-12.78Q159.44-13.18 159.44-13.68L159.44-13.68L159.44-13.68Q159.44-14.69 160.81-14.69L160.81-14.69ZM154.30 0.40L154.30 0.40L154.30 0.40Q152.46 0.40 152.46-1.98L152.46-1.98L152.46-1.98Q152.46-3.92 154.58-7.36L154.58-7.36L154.58-7.36Q156.71-10.80 158.00-10.84L158.00-10.84L158.00-10.84Q158.36-10.84 158.81-10.55L158.81-10.55L158.81-10.55Q159.26-10.26 159.26-9.97L159.26-9.97L159.26-9.97Q159.08-9.72 158.83-9.41L158.83-9.41L158.83-9.41Q158.58-9.11 158.29-8.75L158.29-8.75L158.29-8.75Q158.00-8.39 157.50-7.72L157.50-7.72L157.50-7.72Q157.00-7.06 156.53-6.44L156.53-6.44L156.53-6.44Q153.83-2.95 153.83-1.64L153.83-1.64L153.83-1.64Q153.83-0.32 154.73-0.32L154.73-0.32L154.73-0.32Q155.48-0.32 156.78-1.15L156.78-1.15L156.78-1.15Q159.80-3.02 161.57-5.26L161.57-5.26L161.57-5.26Q162.22-6.08 162.45-6.08L162.45-6.08L162.45-6.08Q162.68-6.08 162.68-5.80L162.68-5.80L162.68-5.80Q162.68-5.51 161.86-4.64L161.86-4.64L161.86-4.64Q161.03-3.78 160.54-3.28L160.54-3.28L160.54-3.28Q160.06-2.77 159.88-2.61L159.88-2.61L159.88-2.61Q159.70-2.45 159.21-2.00L159.21-2.00L159.21-2.00Q158.72-1.55 158.47-1.37L158.47-1.37L158.47-1.37Q158.22-1.19 157.75-0.83L157.75-0.83L157.75-0.83Q157.28-0.47 156.92-0.31L156.92-0.31L156.92-0.31Q156.56-0.14 156.10 0.07L156.10 0.07L156.10 0.07Q155.34 0.40 154.30 0.40ZM163.87 0.47L163.87 0.47L163.87 0.47Q163.48 0.47 163.15 0.36L163.15 0.36L163.15 0.36Q160.85-0.29 160.85-2.23L160.85-2.23L160.85-2.23Q160.85-4.75 164.02-8.06L164.02-8.06L164.02-8.06Q167.18-11.38 169.70-11.38L169.70-11.38L169.70-11.38Q170.53-11.38 171.05-10.93L171.05-10.93L171.05-10.93Q171.58-10.48 171.58-9.70L171.58-9.70L171.58-9.70Q171.58-8.93 171.11-8.08L171.11-8.08L171.11-8.08Q170.64-7.24 169.70-7.24L169.70-7.24L169.70-7.24Q168.77-7.24 168.77-7.81L168.77-7.81L168.77-7.81Q168.77-8.21 169.25-9.02L169.25-9.02L169.25-9.02Q169.74-9.83 169.74-9.88L169.74-9.88L169.74-9.88Q169.74-9.94 169.63-9.94L169.63-9.94L169.63-9.94Q168.62-9.83 166.88-8.50L166.88-8.50L166.88-8.50Q165.13-7.16 164.48-6.26L164.48-6.26L163.08-4.21L163.08-4.21Q162.72-3.64 162.56-2.84L162.56-2.84L162.56-2.84Q162.40-2.05 162.40-1.66L162.40-1.66L162.40-1.66Q162.40-1.26 162.85-0.76L162.85-0.76L162.85-0.76Q163.30-0.25 164.12-0.25L164.12-0.25L164.12-0.25Q165.92-0.25 168.59-2.36L168.59-2.36L168.59-2.36Q171.25-4.46 172.69-6.37L172.69-6.37L172.69-6.37Q172.87-6.59 173.12-6.59L173.12-6.59L173.12-6.59Q173.38-6.59 173.38-6.44L173.38-6.44L173.38-6.44Q173.38-6.30 173.20-6.08L173.20-6.08L173.20-6.08Q171.22-3.46 168.46-1.49L168.46-1.49L168.46-1.49Q165.71 0.47 163.87 0.47Z" fill="url(#editing-sticker-gradient)" stroke="#dce4eb" stroke-width="2.5"></path></g></g><style>text {
  font-size: 64px;
  font-family: Arial Black;
  dominant-baseline: central;
  text-anchor: middle;
}</style></svg>