<svg width="394.7012084960937px" height="57.18751220703125px" xmlns="http://www.w3.org/2000/svg" viewBox="52.649395751953136 46.406243896484376 394.7012084960937 57.18751220703125" style="background: rgb(255, 255, 255);" preserveAspectRatio="xMidYMid"><defs><filter id="editing-metal-beveled"><feGaussianBlur stdDeviation="4" in="SourceAlpha" result="blur"></feGaussianBlur><feSpecularLighting surfaceScale="5" specularConstant="0.8" specularExponent="7.5" lighting-color="#ffffff" in="blur" result="specular"><fePointLight x="-250" y="-50" z="300"></fePointLight></feSpecularLighting><feComposite operator="in" in="specular" in2="SourceAlpha" result="comp"></feComposite><feComposite in="SourceGraphic" in2="comp" operator="arithmetic" k1="0" k2="1" k3="1" k4="0"></feComposite></filter></defs><g filter="url(#editing-metal-beveled)"><g transform="translate(112.15718805789948, 84.13937473297119)"><path d="M20.31 0L8.84 0L8.84 0Q8.40-1.74 7.91-3.38L7.91-3.38L7.91-3.38Q7.42-5.03 6.95-6.41L6.95-6.41L6.95-6.41Q6.48-7.79 6.06-8.83L6.06-8.83L6.06-8.83Q5.64-9.87 5.34-10.42L5.34-10.42L5.34-10.42Q4.96-11.10 4.48-11.56L4.48-11.56L4.48-11.56Q4.00-12.02 3.44-12.31L3.44-12.31L3.44-12.31Q2.89-12.60 2.29-12.73L2.29-12.73L2.29-12.73Q1.69-12.86 1.07-12.86L1.07-12.86L1.07-13.87L18.12-13.87L18.12-12.83L18.12-12.83Q17.46-12.83 17.12-12.43L17.12-12.43L17.12-12.43Q16.79-12.04 16.79-11.42L16.79-11.42L16.79-11.42Q16.79-11.16 16.86-10.67L16.86-10.67L16.86-10.67Q16.93-10.18 17.06-9.53L17.06-9.53L17.06-9.53Q17.20-8.87 17.41-8.08L17.41-8.08L17.41-8.08Q17.62-7.28 17.90-6.41L17.90-6.41L17.90-6.41Q18.18-5.53 18.52-4.62L18.52-4.62L18.52-4.62Q18.87-3.71 19.30-2.81L19.30-2.81L19.30-2.81Q19.73-4.07 20.14-5.26L20.14-5.26L20.14-5.26Q20.55-6.45 20.87-7.50L20.87-7.50L20.87-7.50Q21.18-8.55 21.38-9.45L21.38-9.45L21.38-9.45Q21.57-10.34 21.57-11.03L21.57-11.03L21.57-11.03Q21.57-11.86 21.24-12.33L21.24-12.33L21.24-12.33Q20.90-12.79 20.12-12.79L20.12-12.79L20.12-13.87L34.91-13.87L34.91-12.84L34.91-12.84Q34.55-12.84 34.28-12.72L34.28-12.72L34.28-12.72Q34.01-12.60 33.83-12.40L33.83-12.40L33.83-12.40Q33.66-12.20 33.56-11.95L33.56-11.95L33.56-11.95Q33.47-11.69 33.47-11.42L33.47-11.42L33.47-11.42Q33.47-11.03 33.61-10.13L33.61-10.13L33.61-10.13Q33.74-9.23 34.04-8.03L34.04-8.03L34.04-8.03Q34.33-6.83 34.79-5.45L34.79-5.45L34.79-5.45Q35.26-4.06 35.90-2.71L35.90-2.71L35.90-2.71Q36.16-3.33 36.43-4.08L36.43-4.08L36.43-4.08Q36.71-4.83 36.96-5.64L36.96-5.64L36.96-5.64Q37.21-6.45 37.44-7.27L37.44-7.27L37.44-7.27Q37.67-8.09 37.84-8.84L37.84-8.84L37.84-8.84Q38.01-9.59 38.11-10.24L38.11-10.24L38.11-10.24Q38.21-10.89 38.21-11.37L38.21-11.37L38.21-11.37Q38.21-11.61 38.12-11.88L38.12-11.88L38.12-11.88Q38.03-12.14 37.84-12.35L37.84-12.35L37.84-12.35Q37.65-12.57 37.36-12.71L37.36-12.71L37.36-12.71Q37.07-12.85 36.67-12.85L36.67-12.85L36.67-13.87L45.24-13.87L45.24-12.86L45.24-12.86Q44.13-12.86 43.26-12.50L43.26-12.50L43.26-12.50Q42.40-12.14 41.70-11.42L41.70-11.42L41.70-11.42Q40.99-10.70 40.40-9.62L40.40-9.62L40.40-9.62Q39.80-8.54 39.24-7.11L39.24-7.11L39.24-7.11Q38.67-5.68 38.10-3.90L38.10-3.90L38.10-3.90Q37.52-2.13 36.86 0L36.86 0L25.67 0L25.67 0Q24.90-2.57 24.25-4.57L24.25-4.57L24.25-4.57Q23.60-6.57 23.04-8.13L23.04-8.13L23.04-8.13Q22.40-6.58 21.76-4.55L21.76-4.55L21.76-4.55Q21.13-2.52 20.31 0L20.31 0ZM47.17-2.37L47.17-2.37L47.17-2.37Q47.17-3.32 47.75-3.94L47.75-3.94L47.75-3.94Q48.33-4.57 49.29-4.93L49.29-4.93L49.29-4.93Q50.24-5.29 51.47-5.43L51.47-5.43L51.47-5.43Q52.70-5.58 54.00-5.58L54.00-5.58L54.00-5.58Q55.15-5.58 56.26-5.55L56.26-5.55L56.26-5.55Q57.36-5.53 58.35-5.49L58.35-5.49L58.35-5.49Q59.33-5.46 60.13-5.40L60.13-5.40L60.13-5.40Q60.94-5.35 61.49-5.29L61.49-5.29L61.49-7.62L61.49-7.62Q61.49-8.48 61.25-9.07L61.25-9.07L61.25-9.07Q61.00-9.66 60.51-10.02L60.51-10.02L60.51-10.02Q60.01-10.38 59.23-10.54L59.23-10.54L59.23-10.54Q58.46-10.70 57.41-10.70L57.41-10.70L57.41-10.70Q56.64-10.70 55.88-10.68L55.88-10.68L55.88-10.68Q55.11-10.66 54.46-10.61L54.46-10.61L54.46-10.61Q55.47-10.61 56.31-10.47L56.31-10.47L56.31-10.47Q57.15-10.32 57.75-10.05L57.75-10.05L57.75-10.05Q58.35-9.79 58.68-9.40L58.68-9.40L58.68-9.40Q59.01-9.02 59.01-8.55L59.01-8.55L59.01-8.55Q59.01-8.01 58.62-7.61L58.62-7.61L58.62-7.61Q58.23-7.21 57.56-6.94L57.56-6.94L57.56-6.94Q56.89-6.67 55.98-6.53L55.98-6.53L55.98-6.53Q55.08-6.39 54.03-6.39L54.03-6.39L54.03-6.39Q53.08-6.39 52.21-6.57L52.21-6.57L52.21-6.57Q51.35-6.76 50.68-7.07L50.68-7.07L50.68-7.07Q50.02-7.39 49.62-7.83L49.62-7.83L49.62-7.83Q49.23-8.26 49.23-8.77L49.23-8.77L49.23-8.77Q49.23-9.29 49.65-9.72L49.65-9.72L49.65-9.72Q50.06-10.15 50.76-10.48L50.76-10.48L50.76-10.48Q51.47-10.81 52.40-11.04L52.40-11.04L52.40-11.04Q53.32-11.28 54.36-11.44L54.36-11.44L54.36-11.44Q55.40-11.59 56.48-11.66L56.48-11.66L56.48-11.66Q57.57-11.73 58.58-11.73L58.58-11.73L58.58-11.73Q60.07-11.73 61.60-11.70L61.60-11.70L61.60-11.70Q63.12-11.68 64.54-11.55L64.54-11.55L64.54-11.55Q65.96-11.42 67.20-11.15L67.20-11.15L67.20-11.15Q68.45-10.88 69.37-10.40L69.37-10.40L69.37-10.40Q70.30-9.92 70.83-9.18L70.83-9.18L70.83-9.18Q71.36-8.45 71.36-7.39L71.36-7.39L71.36-4.82L71.36-4.82Q71.36-3.82 71.49-3.21L71.49-3.21L71.49-3.21Q71.63-2.59 71.87-2.25L71.87-2.25L71.87-2.25Q72.10-1.91 72.42-1.80L72.42-1.80L72.42-1.80Q72.75-1.69 73.11-1.69L73.11-1.69L73.11-1.69Q73.44-1.69 73.75-1.82L73.75-1.82L73.75-1.82Q74.05-1.96 74.28-2.22L74.28-2.22L74.28-2.22Q74.52-2.49 74.67-2.90L74.67-2.90L74.67-2.90Q74.82-3.30 74.84-3.82L74.84-3.82L76.05-3.82L76.05-3.82Q76.05-2.86 75.76-2.16L75.76-2.16L75.76-2.16Q75.47-1.47 74.95-0.99L74.95-0.99L74.95-0.99Q74.43-0.50 73.71-0.22L73.71-0.22L73.71-0.22Q72.99 0.06 72.14 0.23L72.14 0.23L72.14 0.23Q71.29 0.39 70.33 0.44L70.33 0.44L70.33 0.44Q69.37 0.48 68.37 0.48L68.37 0.48L68.37 0.48Q67.16 0.48 66.13 0.43L66.13 0.43L66.13 0.43Q65.11 0.38 64.29 0.20L64.29 0.20L64.29 0.20Q63.48 0.02 62.88-0.31L62.88-0.31L62.88-0.31Q62.29-0.64 61.95-1.20L61.95-1.20L61.95-1.20Q61.50-0.89 60.81-0.59L60.81-0.59L60.81-0.59Q60.11-0.29 59.08-0.05L59.08-0.05L59.08-0.05Q58.04 0.19 56.60 0.34L56.60 0.34L56.60 0.34Q55.16 0.48 53.23 0.48L53.23 0.48L53.23 0.48Q51.96 0.48 50.86 0.29L50.86 0.29L50.86 0.29Q49.76 0.10 48.94-0.27L48.94-0.27L48.94-0.27Q48.11-0.63 47.64-1.17L47.64-1.17L47.64-1.17Q47.17-1.70 47.17-2.37ZM56.68-2.90L56.68-2.90L56.68-2.90Q56.68-2.69 56.77-2.44L56.77-2.44L56.77-2.44Q56.86-2.20 57.07-2.00L57.07-2.00L57.07-2.00Q57.28-1.79 57.62-1.66L57.62-1.66L57.62-1.66Q57.95-1.53 58.46-1.53L58.46-1.53L58.46-1.53Q58.75-1.53 59.10-1.54L59.10-1.54L59.10-1.54Q59.45-1.55 59.84-1.60L59.84-1.60L59.84-1.60Q60.24-1.64 60.68-1.75L60.68-1.75L60.68-1.75Q61.12-1.86 61.60-2.05L61.60-2.05L61.60-2.05Q61.49-2.49 61.49-3.10L61.49-3.10L61.49-4.25L61.49-4.25Q61.03-4.28 60.55-4.28L60.55-4.28L60.55-4.28Q60.08-4.29 59.64-4.29L59.64-4.29L59.64-4.29Q58.91-4.29 58.35-4.23L58.35-4.23L58.35-4.23Q57.79-4.18 57.42-4.02L57.42-4.02L57.42-4.02Q57.05-3.87 56.86-3.60L56.86-3.60L56.86-3.60Q56.68-3.33 56.68-2.90ZM79.03 0.60L79.03 0.60L79.03 0.60Q78.91 0.34 78.81-0.14L78.81-0.14L78.81-0.14Q78.71-0.62 78.64-1.15L78.64-1.15L78.64-1.15Q78.57-1.68 78.53-2.16L78.53-2.16L78.53-2.16Q78.48-2.65 78.48-2.91L78.48-2.91L79.80-2.91L79.80-2.91Q80.09-2.43 80.91-2.03L80.91-2.03L80.91-2.03Q81.73-1.63 82.96-1.35L82.96-1.35L82.96-1.35Q84.20-1.07 85.80-0.92L85.80-0.92L85.80-0.92Q87.40-0.77 89.25-0.77L89.25-0.77L89.25-0.77Q90.31-0.77 90.92-1.05L90.92-1.05L90.92-1.05Q91.53-1.33 91.53-1.75L91.53-1.75L91.53-1.75Q91.53-2.12 91.15-2.34L91.15-2.34L91.15-2.34Q90.77-2.56 90.12-2.69L90.12-2.69L90.12-2.69Q89.46-2.83 88.59-2.90L88.59-2.90L88.59-2.90Q87.72-2.96 86.74-3.03L86.74-3.03L86.74-3.03Q85.75-3.09 84.72-3.19L84.72-3.19L84.72-3.19Q83.68-3.28 82.70-3.44L82.70-3.44L82.70-3.44Q81.72-3.61 80.85-3.88L80.85-3.88L80.85-3.88Q79.98-4.16 79.32-4.59L79.32-4.59L79.32-4.59Q78.67-5.03 78.28-5.66L78.28-5.66L78.28-5.66Q77.90-6.28 77.90-7.17L77.90-7.17L77.90-7.17Q77.90-7.98 78.22-8.64L78.22-8.64L78.22-8.64Q78.55-9.29 79.14-9.80L79.14-9.80L79.14-9.80Q79.73-10.30 80.55-10.67L80.55-10.67L80.55-10.67Q81.37-11.03 82.37-11.27L82.37-11.27L82.37-11.27Q83.36-11.50 84.50-11.62L84.50-11.62L84.50-11.62Q85.64-11.73 86.85-11.73L86.85-11.73L86.85-11.73Q87.77-11.73 88.75-11.69L88.75-11.69L88.75-11.69Q89.72-11.66 90.67-11.60L90.67-11.60L90.67-11.60Q91.63-11.54 92.53-11.47L92.53-11.47L92.53-11.47Q93.44-11.41 94.22-11.35L94.22-11.35L94.22-11.35Q95.00-11.29 95.64-11.25L95.64-11.25L95.64-11.25Q96.27-11.21 96.68-11.21L96.68-11.21L96.68-11.21Q97.07-11.21 97.49-11.24L97.49-11.24L97.49-11.24Q97.90-11.27 98.31-11.33L98.31-11.33L98.31-11.33Q98.71-11.40 99.06-11.49L99.06-11.49L99.06-11.49Q99.41-11.59 99.66-11.74L99.66-11.74L99.66-11.74Q99.77-11.48 99.88-11.05L99.88-11.05L99.88-11.05Q99.98-10.61 100.05-10.14L100.05-10.14L100.05-10.14Q100.12-9.66 100.16-9.22L100.16-9.22L100.16-9.22Q100.20-8.78 100.20-8.50L100.20-8.50L98.91-8.50L98.91-8.50Q98.70-8.85 97.92-9.23L97.92-9.23L97.92-9.23Q97.14-9.61 95.94-9.92L95.94-9.92L95.94-9.92Q94.74-10.23 93.19-10.43L93.19-10.43L93.19-10.43Q91.65-10.62 89.92-10.62L89.92-10.62L89.92-10.62Q89.74-10.62 89.46-10.60L89.46-10.60L89.46-10.60Q89.17-10.57 88.91-10.48L88.91-10.48L88.91-10.48Q88.64-10.39 88.45-10.21L88.45-10.21L88.45-10.21Q88.26-10.03 88.26-9.74L88.26-9.74L88.26-9.74Q88.26-9.39 88.62-9.16L88.62-9.16L88.62-9.16Q88.99-8.94 89.62-8.79L89.62-8.79L89.62-8.79Q90.26-8.64 91.09-8.53L91.09-8.53L91.09-8.53Q91.93-8.43 92.88-8.33L92.88-8.33L92.88-8.33Q93.82-8.23 94.82-8.09L94.82-8.09L94.82-8.09Q95.82-7.96 96.77-7.75L96.77-7.75L96.77-7.75Q97.71-7.54 98.55-7.23L98.55-7.23L98.55-7.23Q99.39-6.92 100.02-6.45L100.02-6.45L100.02-6.45Q100.65-5.98 101.02-5.33L101.02-5.33L101.02-5.33Q101.38-4.68 101.38-3.81L101.38-3.81L101.38-3.81Q101.38-2.88 100.76-2.09L100.76-2.09L100.76-2.09Q100.13-1.31 99-0.74L99-0.74L99-0.74Q97.87-0.16 96.33 0.16L96.33 0.16L96.33 0.16Q94.78 0.48 92.94 0.48L92.94 0.48L92.94 0.48Q91.44 0.48 89.97 0.41L89.97 0.41L89.97 0.41Q88.50 0.33 87.11 0.24L87.11 0.24L87.11 0.24Q85.71 0.14 84.39 0.06L84.39 0.06L84.39 0.06Q83.07-0.01 81.87-0.01L81.87-0.01L81.87-0.01Q81.49-0.01 81.09 0.02L81.09 0.02L81.09 0.02Q80.68 0.05 80.31 0.13L80.31 0.13L80.31 0.13Q79.93 0.20 79.60 0.32L79.60 0.32L79.60 0.32Q79.27 0.43 79.03 0.60ZM107.73-15.59L107.73-15.59L107.73-15.59Q107.73-16.13 108.17-16.61L108.17-16.61L108.17-16.61Q108.60-17.09 109.35-17.45L109.35-17.45L109.35-17.45Q110.10-17.80 111.10-18.00L111.10-18.00L111.10-18.00Q112.11-18.21 113.23-18.21L113.23-18.21L113.23-18.21Q114.37-18.21 115.38-18.00L115.38-18.00L115.38-18.00Q116.38-17.80 117.13-17.45L117.13-17.45L117.13-17.45Q117.88-17.09 118.31-16.61L118.31-16.61L118.31-16.61Q118.74-16.13 118.74-15.59L118.74-15.59L118.74-15.59Q118.74-15.05 118.31-14.58L118.31-14.58L118.31-14.58Q117.88-14.10 117.13-13.75L117.13-13.75L117.13-13.75Q116.38-13.40 115.38-13.19L115.38-13.19L115.38-13.19Q114.37-12.99 113.23-12.99L113.23-12.99L113.23-12.99Q112.11-12.99 111.10-13.19L111.10-13.19L111.10-13.19Q110.10-13.40 109.35-13.75L109.35-13.75L109.35-13.75Q108.60-14.10 108.17-14.58L108.17-14.58L108.17-14.58Q107.73-15.05 107.73-15.59ZM103.52 0L103.52-1.01L103.52-1.01Q105.00-1.06 106.02-1.39L106.02-1.39L106.02-1.39Q107.04-1.71 107.66-2.28L107.66-2.28L107.66-2.28Q108.29-2.85 108.57-3.66L108.57-3.66L108.57-3.66Q108.85-4.48 108.85-5.53L108.85-5.53L108.85-5.53Q108.85-6.61 108.57-7.37L108.57-7.37L108.57-7.37Q108.29-8.14 107.69-8.63L107.69-8.63L107.69-8.63Q107.09-9.12 106.15-9.35L106.15-9.35L106.15-9.35Q105.21-9.57 103.88-9.57L103.88-9.57L103.88-10.58L118.29-11.55L118.29-5.53L118.29-5.53Q118.29-4.48 118.48-3.66L118.48-3.66L118.48-3.66Q118.66-2.85 119.17-2.28L119.17-2.28L119.17-2.28Q119.68-1.71 120.59-1.39L120.59-1.39L120.59-1.39Q121.49-1.06 122.94-1.01L122.94-1.01L122.94 0L103.52 0ZM133.69 0L133.69-1.01L133.69-1.01Q135.30-1.06 136.36-1.39L136.36-1.39L136.36-1.39Q137.42-1.71 138.06-2.42L138.06-2.42L138.06-2.42Q138.69-3.13 138.96-4.28L138.96-4.28L138.96-4.28Q139.22-5.44 139.22-7.18L139.22-7.18L139.22-7.18Q139.22-8.94 138.89-10.04L138.89-10.04L138.89-10.04Q138.55-11.15 137.86-11.78L137.86-11.78L137.86-11.78Q137.17-12.41 136.09-12.63L136.09-12.63L136.09-12.63Q135.02-12.86 133.54-12.86L133.54-12.86L133.54-13.87L149.35-13.87L152.94-9.74L155.45-13.87L171.18-13.87L171.18-12.86L171.18-12.86Q169.69-12.86 168.65-12.63L168.65-12.63L168.65-12.63Q167.60-12.41 166.93-11.78L166.93-11.78L166.93-11.78Q166.27-11.15 165.96-10.04L165.96-10.04L165.96-10.04Q165.66-8.94 165.66-7.18L165.66-7.18L165.66-7.18Q165.66-5.44 165.91-4.28L165.91-4.28L165.91-4.28Q166.17-3.13 166.80-2.42L166.80-2.42L166.80-2.42Q167.44-1.71 168.50-1.39L168.50-1.39L168.50-1.39Q169.57-1.06 171.18-1.01L171.18-1.01L171.18 0L150.90 0L150.90-1.01L150.90-1.01Q151.96-1.04 152.72-1.28L152.72-1.28L152.72-1.28Q153.47-1.51 153.98-1.92L153.98-1.92L153.98-1.92Q154.48-2.33 154.78-2.89L154.78-2.89L154.78-2.89Q155.07-3.45 155.22-4.12L155.22-4.12L155.22-4.12Q155.36-4.79 155.41-5.56L155.41-5.56L155.41-5.56Q155.45-6.34 155.45-7.18L155.45-7.18L155.45-11.23L148.18 0.39L140.52-9.11L140.52-7.18L140.52-7.18Q140.52-6.34 140.56-5.56L140.56-5.56L140.56-5.56Q140.59-4.79 140.74-4.12L140.74-4.12L140.74-4.12Q140.89-3.45 141.19-2.89L141.19-2.89L141.19-2.89Q141.49-2.33 141.99-1.93L141.99-1.93L141.99-1.93Q142.50-1.53 143.25-1.28L143.25-1.28L143.25-1.28Q144.00-1.04 145.07-1.01L145.07-1.01L145.07 0L133.69 0ZM175.16-3.39L175.16-3.39L175.16-3.39Q175.16-3.73 175.19-4.15L175.19-4.15L175.19-4.15Q175.22-4.58 175.25-5.02L175.25-5.02L175.25-5.02Q175.28-5.47 175.31-5.90L175.31-5.90L175.31-5.90Q175.33-6.33 175.33-6.68L175.33-6.68L175.33-6.68Q175.33-7.23 175.25-7.78L175.25-7.78L175.25-7.78Q175.17-8.34 174.89-8.78L174.89-8.78L174.89-8.78Q174.61-9.23 174.06-9.51L174.06-9.51L174.06-9.51Q173.51-9.79 172.57-9.79L172.57-9.79L172.57-9.79Q172.24-9.79 171.85-9.75L171.85-9.75L171.85-10.76L185.09-11.73L185.09-5.42L185.09-5.42Q185.09-4.62 185.18-4.02L185.18-4.02L185.18-4.02Q185.27-3.43 185.51-3.03L185.51-3.03L185.51-3.03Q185.75-2.64 186.17-2.44L186.17-2.44L186.17-2.44Q186.59-2.25 187.24-2.25L187.24-2.25L187.24-2.25Q187.58-2.25 187.95-2.30L187.95-2.30L187.95-2.30Q188.32-2.36 188.70-2.48L188.70-2.48L188.70-6.63L188.70-6.63Q188.70-7.56 188.52-8.19L188.52-8.19L188.52-8.19Q188.34-8.81 188.04-9.20L188.04-9.20L188.04-9.20Q187.74-9.59 187.34-9.80L187.34-9.80L187.34-9.80Q186.94-10.01 186.48-10.13L186.48-10.13L186.48-10.96L198.14-11.92L198.14-5.03L198.14-5.03Q198.14-3.97 198.27-3.23L198.27-3.23L198.27-3.23Q198.40-2.49 198.81-2.01L198.81-2.01L198.81-2.01Q199.21-1.54 199.98-1.29L199.98-1.29L199.98-1.29Q200.75-1.04 202.03-0.99L202.03-0.99L202.09 0.02L202.09 0.02Q201.36 0.02 200.41 0.03L200.41 0.03L200.41 0.03Q199.46 0.04 198.42 0.06L198.42 0.06L198.42 0.06Q197.39 0.09 196.32 0.11L196.32 0.11L196.32 0.11Q195.25 0.13 194.27 0.15L194.27 0.15L194.27 0.15Q193.28 0.17 192.46 0.18L192.46 0.18L192.46 0.18Q191.63 0.19 191.08 0.19L191.08 0.19L191.08 0.19Q190.61 0.19 190.24 0.06L190.24 0.06L190.24 0.06Q189.87-0.08 189.58-0.30L189.58-0.30L189.58-0.30Q189.30-0.52 189.11-0.80L189.11-0.80L189.11-0.80Q188.92-1.08 188.83-1.40L188.83-1.40L188.83-1.40Q187.91-0.96 187.01-0.61L187.01-0.61L187.01-0.61Q186.10-0.27 185.15-0.02L185.15-0.02L185.15-0.02Q184.20 0.23 183.18 0.35L183.18 0.35L183.18 0.35Q182.16 0.48 181.03 0.48L181.03 0.48L181.03 0.48Q180.46 0.48 179.80 0.46L179.80 0.46L179.80 0.46Q179.15 0.43 178.50 0.32L178.50 0.32L178.50 0.32Q177.85 0.20 177.24-0.04L177.24-0.04L177.24-0.04Q176.63-0.28 176.17-0.71L176.17-0.71L176.17-0.71Q175.71-1.15 175.44-1.80L175.44-1.80L175.44-1.80Q175.16-2.45 175.16-3.39ZM204.78 0.60L204.78 0.60L204.78 0.60Q204.66 0.34 204.56-0.14L204.56-0.14L204.56-0.14Q204.46-0.62 204.39-1.15L204.39-1.15L204.39-1.15Q204.32-1.68 204.27-2.16L204.27-2.16L204.27-2.16Q204.23-2.65 204.23-2.91L204.23-2.91L205.55-2.91L205.55-2.91Q205.84-2.43 206.66-2.03L206.66-2.03L206.66-2.03Q207.47-1.63 208.71-1.35L208.71-1.35L208.71-1.35Q209.95-1.07 211.55-0.92L211.55-0.92L211.55-0.92Q213.15-0.77 214.99-0.77L214.99-0.77L214.99-0.77Q216.06-0.77 216.67-1.05L216.67-1.05L216.67-1.05Q217.28-1.33 217.28-1.75L217.28-1.75L217.28-1.75Q217.28-2.12 216.90-2.34L216.90-2.34L216.90-2.34Q216.52-2.56 215.86-2.69L215.86-2.69L215.86-2.69Q215.21-2.83 214.34-2.90L214.34-2.90L214.34-2.90Q213.47-2.96 212.49-3.03L212.49-3.03L212.49-3.03Q211.50-3.09 210.47-3.19L210.47-3.19L210.47-3.19Q209.43-3.28 208.45-3.44L208.45-3.44L208.45-3.44Q207.46-3.61 206.59-3.88L206.59-3.88L206.59-3.88Q205.72-4.16 205.07-4.59L205.07-4.59L205.07-4.59Q204.41-5.03 204.03-5.66L204.03-5.66L204.03-5.66Q203.65-6.28 203.65-7.17L203.65-7.17L203.65-7.17Q203.65-7.98 203.97-8.64L203.97-8.64L203.97-8.64Q204.29-9.29 204.89-9.80L204.89-9.80L204.89-9.80Q205.48-10.30 206.30-10.67L206.30-10.67L206.30-10.67Q207.12-11.03 208.11-11.27L208.11-11.27L208.11-11.27Q209.11-11.50 210.25-11.62L210.25-11.62L210.25-11.62Q211.38-11.73 212.60-11.73L212.60-11.73L212.60-11.73Q213.52-11.73 214.49-11.69L214.49-11.69L214.49-11.69Q215.47-11.66 216.42-11.60L216.42-11.60L216.42-11.60Q217.38-11.54 218.28-11.47L218.28-11.47L218.28-11.47Q219.18-11.41 219.97-11.35L219.97-11.35L219.97-11.35Q220.75-11.29 221.39-11.25L221.39-11.25L221.39-11.25Q222.02-11.21 222.43-11.21L222.43-11.21L222.43-11.21Q222.81-11.21 223.23-11.24L223.23-11.24L223.23-11.24Q223.65-11.27 224.06-11.33L224.06-11.33L224.06-11.33Q224.46-11.40 224.81-11.49L224.81-11.49L224.81-11.49Q225.16-11.59 225.40-11.74L225.40-11.74L225.40-11.74Q225.52-11.48 225.62-11.05L225.62-11.05L225.62-11.05Q225.73-10.61 225.80-10.14L225.80-10.14L225.80-10.14Q225.87-9.66 225.91-9.22L225.91-9.22L225.91-9.22Q225.95-8.78 225.95-8.50L225.95-8.50L224.66-8.50L224.66-8.50Q224.45-8.85 223.67-9.23L223.67-9.23L223.67-9.23Q222.89-9.61 221.69-9.92L221.69-9.92L221.69-9.92Q220.48-10.23 218.94-10.43L218.94-10.43L218.94-10.43Q217.40-10.62 215.67-10.62L215.67-10.62L215.67-10.62Q215.49-10.62 215.20-10.60L215.20-10.60L215.20-10.60Q214.92-10.57 214.66-10.48L214.66-10.48L214.66-10.48Q214.39-10.39 214.20-10.21L214.20-10.21L214.20-10.21Q214.01-10.03 214.01-9.74L214.01-9.74L214.01-9.74Q214.01-9.39 214.37-9.16L214.37-9.16L214.37-9.16Q214.74-8.94 215.37-8.79L215.37-8.79L215.37-8.79Q216.00-8.64 216.84-8.53L216.84-8.53L216.84-8.53Q217.68-8.43 218.63-8.33L218.63-8.33L218.63-8.33Q219.57-8.23 220.57-8.09L220.57-8.09L220.57-8.09Q221.57-7.96 222.51-7.75L222.51-7.75L222.51-7.75Q223.46-7.54 224.30-7.23L224.30-7.23L224.30-7.23Q225.13-6.92 225.77-6.45L225.77-6.45L225.77-6.45Q226.40-5.98 226.77-5.33L226.77-5.33L226.77-5.33Q227.13-4.68 227.13-3.81L227.13-3.81L227.13-3.81Q227.13-2.88 226.50-2.09L226.50-2.09L226.50-2.09Q225.88-1.31 224.75-0.74L224.75-0.74L224.75-0.74Q223.62-0.16 222.07 0.16L222.07 0.16L222.07 0.16Q220.53 0.48 218.69 0.48L218.69 0.48L218.69 0.48Q217.19 0.48 215.72 0.41L215.72 0.41L215.72 0.41Q214.25 0.33 212.86 0.24L212.86 0.24L212.86 0.24Q211.46 0.14 210.14 0.06L210.14 0.06L210.14 0.06Q208.82-0.01 207.61-0.01L207.61-0.01L207.61-0.01Q207.24-0.01 206.84 0.02L206.84 0.02L206.84 0.02Q206.43 0.05 206.06 0.13L206.06 0.13L206.06 0.13Q205.68 0.20 205.35 0.32L205.35 0.32L205.35 0.32Q205.01 0.43 204.78 0.60ZM233.48-15.59L233.48-15.59L233.48-15.59Q233.48-16.13 233.92-16.61L233.92-16.61L233.92-16.61Q234.35-17.09 235.10-17.45L235.10-17.45L235.10-17.45Q235.84-17.80 236.85-18.00L236.85-18.00L236.85-18.00Q237.85-18.21 238.98-18.21L238.98-18.21L238.98-18.21Q240.12-18.21 241.12-18.00L241.12-18.00L241.12-18.00Q242.13-17.80 242.88-17.45L242.88-17.45L242.88-17.45Q243.63-17.09 244.06-16.61L244.06-16.61L244.06-16.61Q244.49-16.13 244.49-15.59L244.49-15.59L244.49-15.59Q244.49-15.05 244.06-14.58L244.06-14.58L244.06-14.58Q243.63-14.10 242.88-13.75L242.88-13.75L242.88-13.75Q242.13-13.40 241.12-13.19L241.12-13.19L241.12-13.19Q240.12-12.99 238.98-12.99L238.98-12.99L238.98-12.99Q237.85-12.99 236.85-13.19L236.85-13.19L236.85-13.19Q235.84-13.40 235.10-13.75L235.10-13.75L235.10-13.75Q234.35-14.10 233.92-14.58L233.92-14.58L233.92-14.58Q233.48-15.05 233.48-15.59ZM229.27 0L229.27-1.01L229.27-1.01Q230.75-1.06 231.77-1.39L231.77-1.39L231.77-1.39Q232.78-1.71 233.41-2.28L233.41-2.28L233.41-2.28Q234.04-2.85 234.32-3.66L234.32-3.66L234.32-3.66Q234.60-4.48 234.60-5.53L234.60-5.53L234.60-5.53Q234.60-6.61 234.32-7.37L234.32-7.37L234.32-7.37Q234.04-8.14 233.44-8.63L233.44-8.63L233.44-8.63Q232.84-9.12 231.90-9.35L231.90-9.35L231.90-9.35Q230.96-9.57 229.63-9.57L229.63-9.57L229.63-10.58L244.04-11.55L244.04-5.53L244.04-5.53Q244.04-4.48 244.22-3.66L244.22-3.66L244.22-3.66Q244.41-2.85 244.92-2.28L244.92-2.28L244.92-2.28Q245.43-1.71 246.33-1.39L246.33-1.39L246.33-1.39Q247.24-1.06 248.69-1.01L248.69-1.01L248.69 0L229.27 0ZM250.17-5.52L250.17-5.52L250.17-5.52Q250.17-6.65 250.71-7.55L250.71-7.55L250.71-7.55Q251.24-8.44 252.19-9.14L252.19-9.14L252.19-9.14Q253.14-9.83 254.45-10.32L254.45-10.32L254.45-10.32Q255.76-10.81 257.33-11.12L257.33-11.12L257.33-11.12Q258.90-11.44 260.66-11.59L260.66-11.59L260.66-11.59Q262.43-11.73 264.28-11.73L264.28-11.73L264.28-11.73Q265.55-11.73 266.78-11.63L266.78-11.63L266.78-11.63Q268.01-11.54 269.10-11.35L269.10-11.35L269.10-11.35Q270.20-11.16 271.13-10.88L271.13-10.88L271.13-10.88Q272.06-10.60 272.73-10.25L272.73-10.25L272.73-10.25Q273.41-9.89 273.79-9.46L273.79-9.46L273.79-9.46Q274.17-9.02 274.17-8.52L274.17-8.52L274.17-8.52Q274.17-7.99 273.85-7.50L273.85-7.50L273.85-7.50Q273.53-7.01 272.92-6.63L272.92-6.63L272.92-6.63Q272.30-6.25 271.41-6.02L271.41-6.02L271.41-6.02Q270.51-5.79 269.36-5.79L269.36-5.79L269.36-5.79Q268.28-5.79 267.32-5.96L267.32-5.96L267.32-5.96Q266.37-6.13 265.68-6.43L265.68-6.43L265.68-6.43Q264.98-6.74 264.57-7.15L264.57-7.15L264.57-7.15Q264.17-7.56 264.17-8.06L264.17-8.06L264.17-8.06Q264.17-8.48 264.45-8.88L264.45-8.88L264.45-8.88Q264.72-9.28 265.26-9.60L265.26-9.60L265.26-9.60Q265.80-9.92 266.61-10.11L266.61-10.11L266.61-10.11Q267.42-10.30 268.49-10.30L268.49-10.30L268.49-10.30Q267.88-10.47 267.22-10.55L267.22-10.55L267.22-10.55Q266.56-10.62 265.88-10.62L265.88-10.62L265.88-10.62Q264.90-10.62 263.98-10.40L263.98-10.40L263.98-10.40Q263.07-10.18 262.35-9.66L262.35-9.66L262.35-9.66Q261.64-9.14 261.21-8.28L261.21-8.28L261.21-8.28Q260.78-7.41 260.78-6.12L260.78-6.12L260.78-6.12Q260.78-5.29 261.02-4.60L261.02-4.60L261.02-4.60Q261.26-3.92 261.69-3.38L261.69-3.38L261.69-3.38Q262.12-2.85 262.71-2.45L262.71-2.45L262.71-2.45Q263.29-2.05 263.97-1.79L263.97-1.79L263.97-1.79Q264.66-1.54 265.41-1.41L265.41-1.41L265.41-1.41Q266.17-1.28 266.93-1.28L266.93-1.28L266.93-1.28Q268.17-1.28 269.32-1.49L269.32-1.49L269.32-1.49Q270.47-1.71 271.35-2.08L271.35-2.08L271.35-2.08Q272.23-2.45 272.75-2.94L272.75-2.94L272.75-2.94Q273.28-3.43 273.28-3.99L273.28-3.99L274.60-3.99L274.60-3.99Q274.60-3.23 274.22-2.61L274.22-2.61L274.22-2.61Q273.84-1.99 273.15-1.49L273.15-1.49L273.15-1.49Q272.46-1.00 271.51-0.63L271.51-0.63L271.51-0.63Q270.56-0.26 269.43-0.01L269.43-0.01L269.43-0.01Q268.30 0.24 267.01 0.36L267.01 0.36L267.01 0.36Q265.73 0.48 264.38 0.48L264.38 0.48L264.38 0.48Q262.43 0.48 260.63 0.37L260.63 0.37L260.63 0.37Q258.82 0.25 257.24-0.03L257.24-0.03L257.24-0.03Q255.66-0.30 254.36-0.75L254.36-0.75L254.36-0.75Q253.06-1.20 252.14-1.87L252.14-1.87L252.14-1.87Q251.21-2.54 250.69-3.44L250.69-3.44L250.69-3.44Q250.17-4.34 250.17-5.52Z" fill="#0b0101"></path></g></g><style>text {
  font-size: 64px;
  font-family: Arial Black;
  dominant-baseline: central;
  text-anchor: middle;
}</style></svg>