<svg width="241.3824951171875px" height="41.59000244140625px" xmlns="http://www.w3.org/2000/svg" viewBox="129.30875244140626 54.20499877929687 241.3824951171875 41.59000244140625" style="background: rgb(255, 255, 255);" preserveAspectRatio="xMidYMid"><defs><filter id="editing-metal-beveled"><feGaussianBlur stdDeviation="4" in="SourceAlpha" result="blur"></feGaussianBlur><feSpecularLighting surfaceScale="5" specularConstant="0.8" specularExponent="7.5" lighting-color="#ffffff" in="blur" result="specular"><fePointLight x="-250" y="-50" z="300"></fePointLight></feSpecularLighting><feComposite operator="in" in="specular" in2="SourceAlpha" result="comp"></feComposite><feComposite in="SourceGraphic" in2="comp" operator="arithmetic" k1="0" k2="1" k3="1" k4="0"></feComposite></filter></defs><g filter="url(#editing-metal-beveled)"><g transform="translate(168.53437530994415, 80.63812494277954)"><path d="M12.00 0L5.22 0L5.22 0Q4.96-1.03 4.68-2.00L4.68-2.00L4.68-2.00Q4.39-2.97 4.11-3.79L4.11-3.79L4.11-3.79Q3.83-4.60 3.58-5.22L3.58-5.22L3.58-5.22Q3.33-5.83 3.15-6.16L3.15-6.16L3.15-6.16Q2.93-6.56 2.65-6.83L2.65-6.83L2.65-6.83Q2.36-7.10 2.03-7.27L2.03-7.27L2.03-7.27Q1.71-7.45 1.35-7.52L1.35-7.52L1.35-7.52Q1.00-7.60 0.63-7.60L0.63-7.60L0.63-8.19L10.71-8.19L10.71-7.58L10.71-7.58Q10.31-7.58 10.12-7.35L10.12-7.35L10.12-7.35Q9.92-7.12 9.92-6.75L9.92-6.75L9.92-6.75Q9.92-6.60 9.96-6.31L9.96-6.31L9.96-6.31Q10.00-6.02 10.08-5.63L10.08-5.63L10.08-5.63Q10.16-5.24 10.29-4.77L10.29-4.77L10.29-4.77Q10.41-4.30 10.58-3.79L10.58-3.79L10.58-3.79Q10.74-3.27 10.95-2.73L10.95-2.73L10.95-2.73Q11.15-2.19 11.41-1.66L11.41-1.66L11.41-1.66Q11.66-2.41 11.90-3.11L11.90-3.11L11.90-3.11Q12.14-3.81 12.33-4.43L12.33-4.43L12.33-4.43Q12.52-5.05 12.63-5.58L12.63-5.58L12.63-5.58Q12.75-6.11 12.75-6.52L12.75-6.52L12.75-6.52Q12.75-7.01 12.55-7.28L12.55-7.28L12.55-7.28Q12.35-7.56 11.89-7.56L11.89-7.56L11.89-8.19L20.63-8.19L20.63-7.59L20.63-7.59Q20.41-7.59 20.26-7.52L20.26-7.52L20.26-7.52Q20.10-7.45 19.99-7.33L19.99-7.33L19.99-7.33Q19.89-7.21 19.83-7.06L19.83-7.06L19.83-7.06Q19.78-6.91 19.78-6.75L19.78-6.75L19.78-6.75Q19.78-6.52 19.86-5.99L19.86-5.99L19.86-5.99Q19.94-5.45 20.11-4.74L20.11-4.74L20.11-4.74Q20.29-4.04 20.56-3.22L20.56-3.22L20.56-3.22Q20.83-2.40 21.21-1.60L21.21-1.60L21.21-1.60Q21.37-1.97 21.53-2.41L21.53-2.41L21.53-2.41Q21.69-2.86 21.84-3.33L21.84-3.33L21.84-3.33Q21.99-3.81 22.12-4.29L22.12-4.29L22.12-4.29Q22.26-4.78 22.36-5.22L22.36-5.22L22.36-5.22Q22.46-5.67 22.52-6.05L22.52-6.05L22.52-6.05Q22.58-6.44 22.58-6.72L22.58-6.72L22.58-6.72Q22.58-6.86 22.52-7.02L22.52-7.02L22.52-7.02Q22.47-7.17 22.36-7.30L22.36-7.30L22.36-7.30Q22.25-7.43 22.08-7.51L22.08-7.51L22.08-7.51Q21.91-7.59 21.67-7.59L21.67-7.59L21.67-8.19L26.73-8.19L26.73-7.60L26.73-7.60Q26.08-7.60 25.57-7.39L25.57-7.39L25.57-7.39Q25.05-7.17 24.64-6.75L24.64-6.75L24.64-6.75Q24.22-6.32 23.87-5.68L23.87-5.68L23.87-5.68Q23.52-5.05 23.18-4.20L23.18-4.20L23.18-4.20Q22.85-3.36 22.51-2.31L22.51-2.31L22.51-2.31Q22.17-1.26 21.78 0L21.78 0L15.17 0L15.17 0Q14.71-1.52 14.33-2.70L14.33-2.70L14.33-2.70Q13.95-3.88 13.62-4.81L13.62-4.81L13.62-4.81Q13.23-3.89 12.86-2.69L12.86-2.69L12.86-2.69Q12.49-1.49 12.00 0L12.00 0ZM27.87-1.40L27.87-1.40L27.87-1.40Q27.87-1.96 28.22-2.33L28.22-2.33L28.22-2.33Q28.56-2.70 29.12-2.91L29.12-2.91L29.12-2.91Q29.69-3.12 30.41-3.21L30.41-3.21L30.41-3.21Q31.14-3.29 31.91-3.29L31.91-3.29L31.91-3.29Q32.59-3.29 33.24-3.28L33.24-3.28L33.24-3.28Q33.90-3.27 34.48-3.25L34.48-3.25L34.48-3.25Q35.06-3.22 35.53-3.19L35.53-3.19L35.53-3.19Q36.01-3.16 36.33-3.12L36.33-3.12L36.33-4.50L36.33-4.50Q36.33-5.01 36.19-5.36L36.19-5.36L36.19-5.36Q36.05-5.71 35.75-5.92L35.75-5.92L35.75-5.92Q35.46-6.13 35.00-6.23L35.00-6.23L35.00-6.23Q34.54-6.32 33.92-6.32L33.92-6.32L33.92-6.32Q33.47-6.32 33.02-6.31L33.02-6.31L33.02-6.31Q32.56-6.30 32.18-6.27L32.18-6.27L32.18-6.27Q32.78-6.27 33.27-6.19L33.27-6.19L33.27-6.19Q33.77-6.10 34.13-5.94L34.13-5.94L34.13-5.94Q34.48-5.78 34.67-5.56L34.67-5.56L34.67-5.56Q34.87-5.33 34.87-5.05L34.87-5.05L34.87-5.05Q34.87-4.74 34.64-4.50L34.64-4.50L34.64-4.50Q34.41-4.26 34.01-4.10L34.01-4.10L34.01-4.10Q33.62-3.94 33.08-3.86L33.08-3.86L33.08-3.86Q32.54-3.78 31.93-3.78L31.93-3.78L31.93-3.78Q31.36-3.78 30.85-3.88L30.85-3.88L30.85-3.88Q30.34-3.99 29.95-4.18L29.95-4.18L29.95-4.18Q29.55-4.37 29.32-4.62L29.32-4.62L29.32-4.62Q29.09-4.88 29.09-5.18L29.09-5.18L29.09-5.18Q29.09-5.49 29.34-5.74L29.34-5.74L29.34-5.74Q29.58-6.00 30.00-6.19L30.00-6.19L30.00-6.19Q30.41-6.39 30.96-6.53L30.96-6.53L30.96-6.53Q31.51-6.67 32.12-6.76L32.12-6.76L32.12-6.76Q32.73-6.85 33.38-6.89L33.38-6.89L33.38-6.89Q34.02-6.93 34.61-6.93L34.61-6.93L34.61-6.93Q35.50-6.93 36.40-6.92L36.40-6.92L36.40-6.92Q37.30-6.90 38.14-6.82L38.14-6.82L38.14-6.82Q38.97-6.75 39.71-6.59L39.71-6.59L39.71-6.59Q40.45-6.43 40.99-6.14L40.99-6.14L40.99-6.14Q41.54-5.86 41.85-5.43L41.85-5.43L41.85-5.43Q42.17-5.00 42.17-4.37L42.17-4.37L42.17-2.85L42.17-2.85Q42.17-2.26 42.25-1.89L42.25-1.89L42.25-1.89Q42.33-1.53 42.47-1.33L42.47-1.33L42.47-1.33Q42.61-1.13 42.80-1.06L42.80-1.06L42.80-1.06Q42.99-1.00 43.20-1.00L43.20-1.00L43.20-1.00Q43.40-1.00 43.58-1.08L43.58-1.08L43.58-1.08Q43.75-1.16 43.89-1.31L43.89-1.31L43.89-1.31Q44.03-1.47 44.12-1.71L44.12-1.71L44.12-1.71Q44.21-1.95 44.22-2.26L44.22-2.26L44.94-2.26L44.94-2.26Q44.94-1.69 44.77-1.28L44.77-1.28L44.77-1.28Q44.60-0.87 44.29-0.58L44.29-0.58L44.29-0.58Q43.98-0.30 43.56-0.13L43.56-0.13L43.56-0.13Q43.13 0.04 42.63 0.13L42.63 0.13L42.63 0.13Q42.12 0.23 41.56 0.26L41.56 0.26L41.56 0.26Q40.99 0.29 40.40 0.29L40.40 0.29L40.40 0.29Q39.69 0.29 39.08 0.25L39.08 0.25L39.08 0.25Q38.47 0.22 37.99 0.12L37.99 0.12L37.99 0.12Q37.51 0.01 37.16-0.18L37.16-0.18L37.16-0.18Q36.81-0.38 36.61-0.71L36.61-0.71L36.61-0.71Q36.34-0.53 35.93-0.35L35.93-0.35L35.93-0.35Q35.52-0.17 34.91-0.03L34.91-0.03L34.91-0.03Q34.30 0.11 33.45 0.20L33.45 0.20L33.45 0.20Q32.60 0.29 31.45 0.29L31.45 0.29L31.45 0.29Q30.70 0.29 30.05 0.17L30.05 0.17L30.05 0.17Q29.40 0.06 28.92-0.16L28.92-0.16L28.92-0.16Q28.43-0.37 28.15-0.69L28.15-0.69L28.15-0.69Q27.87-1.00 27.87-1.40ZM33.49-1.71L33.49-1.71L33.49-1.71Q33.49-1.59 33.54-1.44L33.54-1.44L33.54-1.44Q33.60-1.30 33.72-1.18L33.72-1.18L33.72-1.18Q33.85-1.06 34.05-0.98L34.05-0.98L34.05-0.98Q34.25-0.90 34.54-0.90L34.54-0.90L34.54-0.90Q34.72-0.90 34.92-0.91L34.92-0.91L34.92-0.91Q35.13-0.91 35.36-0.94L35.36-0.94L35.36-0.94Q35.60-0.97 35.86-1.03L35.86-1.03L35.86-1.03Q36.12-1.10 36.40-1.21L36.40-1.21L36.40-1.21Q36.33-1.47 36.33-1.83L36.33-1.83L36.33-2.51L36.33-2.51Q36.06-2.53 35.78-2.53L35.78-2.53L35.78-2.53Q35.50-2.53 35.24-2.53L35.24-2.53L35.24-2.53Q34.81-2.53 34.48-2.50L34.48-2.50L34.48-2.50Q34.15-2.47 33.93-2.38L33.93-2.38L33.93-2.38Q33.71-2.29 33.60-2.13L33.60-2.13L33.60-2.13Q33.49-1.97 33.49-1.71ZM46.70 0.36L46.70 0.36L46.70 0.36Q46.63 0.20 46.57-0.08L46.57-0.08L46.57-0.08Q46.51-0.37 46.47-0.68L46.47-0.68L46.47-0.68Q46.43-0.99 46.40-1.28L46.40-1.28L46.40-1.28Q46.38-1.57 46.38-1.72L46.38-1.72L47.16-1.72L47.16-1.72Q47.33-1.43 47.81-1.20L47.81-1.20L47.81-1.20Q48.29-0.96 49.02-0.80L49.02-0.80L49.02-0.80Q49.75-0.63 50.70-0.55L50.70-0.55L50.70-0.55Q51.64-0.46 52.74-0.46L52.74-0.46L52.74-0.46Q53.36-0.46 53.73-0.62L53.73-0.62L53.73-0.62Q54.09-0.79 54.09-1.03L54.09-1.03L54.09-1.03Q54.09-1.25 53.86-1.38L53.86-1.38L53.86-1.38Q53.64-1.51 53.25-1.59L53.25-1.59L53.25-1.59Q52.86-1.67 52.35-1.71L52.35-1.71L52.35-1.71Q51.83-1.75 51.25-1.79L51.25-1.79L51.25-1.79Q50.67-1.83 50.06-1.88L50.06-1.88L50.06-1.88Q49.45-1.94 48.87-2.03L48.87-2.03L48.87-2.03Q48.29-2.13 47.77-2.29L47.77-2.29L47.77-2.29Q47.26-2.46 46.87-2.71L46.87-2.71L46.87-2.71Q46.48-2.97 46.26-3.34L46.26-3.34L46.26-3.34Q46.03-3.71 46.03-4.23L46.03-4.23L46.03-4.23Q46.03-4.72 46.22-5.10L46.22-5.10L46.22-5.10Q46.41-5.49 46.76-5.79L46.76-5.79L46.76-5.79Q47.11-6.09 47.60-6.30L47.60-6.30L47.60-6.30Q48.08-6.52 48.67-6.66L48.67-6.66L48.67-6.66Q49.26-6.80 49.93-6.86L49.93-6.86L49.93-6.86Q50.60-6.93 51.32-6.93L51.32-6.93L51.32-6.93Q51.87-6.93 52.44-6.91L52.44-6.91L52.44-6.91Q53.02-6.89 53.58-6.85L53.58-6.85L53.58-6.85Q54.15-6.82 54.68-6.78L54.68-6.78L54.68-6.78Q55.21-6.74 55.68-6.71L55.68-6.71L55.68-6.71Q56.14-6.67 56.51-6.65L56.51-6.65L56.51-6.65Q56.89-6.63 57.13-6.63L57.13-6.63L57.13-6.63Q57.36-6.63 57.60-6.64L57.60-6.64L57.60-6.64Q57.85-6.66 58.09-6.70L58.09-6.70L58.09-6.70Q58.33-6.73 58.53-6.79L58.53-6.79L58.53-6.79Q58.74-6.85 58.89-6.94L58.89-6.94L58.89-6.94Q58.96-6.79 59.02-6.53L59.02-6.53L59.02-6.53Q59.08-6.27 59.12-5.99L59.12-5.99L59.12-5.99Q59.16-5.71 59.19-5.45L59.19-5.45L59.19-5.45Q59.21-5.19 59.21-5.02L59.21-5.02L58.45-5.02L58.45-5.02Q58.32-5.23 57.86-5.46L57.86-5.46L57.86-5.46Q57.40-5.68 56.69-5.86L56.69-5.86L56.69-5.86Q55.98-6.04 55.07-6.16L55.07-6.16L55.07-6.16Q54.16-6.28 53.14-6.28L53.14-6.28L53.14-6.28Q53.03-6.28 52.86-6.26L52.86-6.26L52.86-6.26Q52.69-6.25 52.54-6.19L52.54-6.19L52.54-6.19Q52.38-6.14 52.27-6.03L52.27-6.03L52.27-6.03Q52.15-5.93 52.15-5.76L52.15-5.76L52.15-5.76Q52.15-5.55 52.37-5.41L52.37-5.41L52.37-5.41Q52.58-5.28 52.96-5.19L52.96-5.19L52.96-5.19Q53.33-5.10 53.83-5.04L53.83-5.04L53.83-5.04Q54.32-4.98 54.88-4.92L54.88-4.92L54.88-4.92Q55.44-4.86 56.03-4.78L56.03-4.78L56.03-4.78Q56.62-4.70 57.18-4.58L57.18-4.58L57.18-4.58Q57.74-4.46 58.23-4.27L58.23-4.27L58.23-4.27Q58.73-4.09 59.10-3.81L59.10-3.81L59.10-3.81Q59.48-3.54 59.69-3.15L59.69-3.15L59.69-3.15Q59.91-2.77 59.91-2.25L59.91-2.25L59.91-2.25Q59.91-1.70 59.54-1.24L59.54-1.24L59.54-1.24Q59.17-0.77 58.50-0.43L58.50-0.43L58.50-0.43Q57.83-0.10 56.92 0.10L56.92 0.10L56.92 0.10Q56.01 0.29 54.92 0.29L54.92 0.29L54.92 0.29Q54.03 0.29 53.16 0.24L53.16 0.24L53.16 0.24Q52.30 0.20 51.47 0.14L51.47 0.14L51.47 0.14Q50.65 0.08 49.87 0.04L49.87 0.04L49.87 0.04Q49.09-0.01 48.38-0.01L48.38-0.01L48.38-0.01Q48.15-0.01 47.92 0.01L47.92 0.01L47.92 0.01Q47.68 0.03 47.46 0.08L47.46 0.08L47.46 0.08Q47.23 0.12 47.04 0.19L47.04 0.19L47.04 0.19Q46.84 0.25 46.70 0.36ZM63.66-9.21L63.66-9.21L63.66-9.21Q63.66-9.53 63.92-9.82L63.92-9.82L63.92-9.82Q64.17-10.10 64.62-10.31L64.62-10.31L64.62-10.31Q65.06-10.52 65.65-10.64L65.65-10.64L65.65-10.64Q66.24-10.76 66.91-10.76L66.91-10.76L66.91-10.76Q67.58-10.76 68.18-10.64L68.18-10.64L68.18-10.64Q68.77-10.52 69.21-10.31L69.21-10.31L69.21-10.31Q69.66-10.10 69.91-9.82L69.91-9.82L69.91-9.82Q70.17-9.53 70.17-9.21L70.17-9.21L70.17-9.21Q70.17-8.89 69.91-8.61L69.91-8.61L69.91-8.61Q69.66-8.33 69.21-8.13L69.21-8.13L69.21-8.13Q68.77-7.92 68.18-7.79L68.18-7.79L68.18-7.79Q67.58-7.67 66.91-7.67L66.91-7.67L66.91-7.67Q66.24-7.67 65.65-7.79L65.65-7.79L65.65-7.79Q65.06-7.92 64.62-8.13L64.62-8.13L64.62-8.13Q64.17-8.33 63.92-8.61L63.92-8.61L63.92-8.61Q63.66-8.89 63.66-9.21ZM61.17 0L61.17-0.60L61.17-0.60Q62.05-0.63 62.65-0.82L62.65-0.82L62.65-0.82Q63.25-1.01 63.62-1.35L63.62-1.35L63.62-1.35Q63.99-1.68 64.16-2.16L64.16-2.16L64.16-2.16Q64.32-2.65 64.32-3.27L64.32-3.27L64.32-3.27Q64.32-3.90 64.16-4.36L64.16-4.36L64.16-4.36Q63.99-4.81 63.64-5.10L63.64-5.10L63.64-5.10Q63.28-5.39 62.72-5.52L62.72-5.52L62.72-5.52Q62.17-5.66 61.38-5.66L61.38-5.66L61.38-6.25L69.90-6.82L69.90-3.27L69.90-3.27Q69.90-2.65 70.01-2.16L70.01-2.16L70.01-2.16Q70.12-1.68 70.42-1.35L70.42-1.35L70.42-1.35Q70.72-1.01 71.26-0.82L71.26-0.82L71.26-0.82Q71.79-0.63 72.65-0.60L72.65-0.60L72.65 0L61.17 0ZM79.00 0L79.00-0.60L79.00-0.60Q79.95-0.63 80.58-0.82L80.58-0.82L80.58-0.82Q81.21-1.01 81.58-1.43L81.58-1.43L81.58-1.43Q81.95-1.85 82.11-2.53L82.11-2.53L82.11-2.53Q82.27-3.21 82.27-4.24L82.27-4.24L82.27-4.24Q82.27-5.28 82.07-5.94L82.07-5.94L82.07-5.94Q81.87-6.59 81.46-6.96L81.46-6.96L81.46-6.96Q81.05-7.33 80.42-7.46L80.42-7.46L80.42-7.46Q79.78-7.60 78.91-7.60L78.91-7.60L78.91-8.19L88.25-8.19L90.37-5.76L91.86-8.19L101.15-8.19L101.15-7.60L101.15-7.60Q100.27-7.60 99.66-7.46L99.66-7.46L99.66-7.46Q99.04-7.33 98.64-6.96L98.64-6.96L98.64-6.96Q98.25-6.59 98.07-5.94L98.07-5.94L98.07-5.94Q97.89-5.28 97.89-4.24L97.89-4.24L97.89-4.24Q97.89-3.21 98.04-2.53L98.04-2.53L98.04-2.53Q98.19-1.85 98.57-1.43L98.57-1.43L98.57-1.43Q98.94-1.01 99.57-0.82L99.57-0.82L99.57-0.82Q100.20-0.63 101.15-0.60L101.15-0.60L101.15 0L89.17 0L89.17-0.60L89.17-0.60Q89.79-0.62 90.24-0.76L90.24-0.76L90.24-0.76Q90.69-0.90 90.99-1.14L90.99-1.14L90.99-1.14Q91.29-1.38 91.46-1.71L91.46-1.71L91.46-1.71Q91.63-2.04 91.72-2.43L91.72-2.43L91.72-2.43Q91.81-2.83 91.83-3.29L91.83-3.29L91.83-3.29Q91.86-3.75 91.86-4.24L91.86-4.24L91.86-6.63L87.56 0.23L83.03-5.38L83.03-4.24L83.03-4.24Q83.03-3.75 83.06-3.29L83.06-3.29L83.06-3.29Q83.08-2.83 83.17-2.43L83.17-2.43L83.17-2.43Q83.26-2.04 83.43-1.71L83.43-1.71L83.43-1.71Q83.60-1.38 83.90-1.14L83.90-1.14L83.90-1.14Q84.20-0.90 84.65-0.76L84.65-0.76L84.65-0.76Q85.09-0.62 85.73-0.60L85.73-0.60L85.73 0L79.00 0ZM103.50-2.01L103.50-2.01L103.50-2.01Q103.50-2.20 103.52-2.45L103.52-2.45L103.52-2.45Q103.54-2.70 103.56-2.97L103.56-2.97L103.56-2.97Q103.57-3.23 103.59-3.48L103.59-3.48L103.59-3.48Q103.61-3.74 103.61-3.95L103.61-3.95L103.61-3.95Q103.61-4.27 103.56-4.60L103.56-4.60L103.56-4.60Q103.51-4.93 103.35-5.19L103.35-5.19L103.35-5.19Q103.18-5.45 102.85-5.62L102.85-5.62L102.85-5.62Q102.53-5.78 101.98-5.78L101.98-5.78L101.98-5.78Q101.78-5.78 101.55-5.76L101.55-5.76L101.55-6.36L109.37-6.93L109.37-3.21L109.37-3.21Q109.37-2.73 109.42-2.38L109.42-2.38L109.42-2.38Q109.48-2.02 109.62-1.79L109.62-1.79L109.62-1.79Q109.76-1.56 110.01-1.44L110.01-1.44L110.01-1.44Q110.26-1.33 110.64-1.33L110.64-1.33L110.64-1.33Q110.84-1.33 111.06-1.36L111.06-1.36L111.06-1.36Q111.28-1.40 111.50-1.47L111.50-1.47L111.50-3.92L111.50-3.92Q111.50-4.47 111.40-4.84L111.40-4.84L111.40-4.84Q111.29-5.21 111.12-5.44L111.12-5.44L111.12-5.44Q110.94-5.67 110.70-5.79L110.70-5.79L110.70-5.79Q110.46-5.92 110.20-5.99L110.20-5.99L110.20-6.47L117.08-7.05L117.08-2.97L117.08-2.97Q117.08-2.35 117.16-1.91L117.16-1.91L117.16-1.91Q117.23-1.47 117.48-1.19L117.48-1.19L117.48-1.19Q117.72-0.91 118.17-0.76L118.17-0.76L118.17-0.76Q118.63-0.62 119.38-0.58L119.38-0.58L119.42 0.01L119.42 0.01Q118.99 0.01 118.43 0.02L118.43 0.02L118.43 0.02Q117.86 0.03 117.25 0.04L117.25 0.04L117.25 0.04Q116.64 0.05 116.01 0.06L116.01 0.06L116.01 0.06Q115.38 0.08 114.79 0.09L114.79 0.09L114.79 0.09Q114.21 0.10 113.72 0.11L113.72 0.11L113.72 0.11Q113.24 0.11 112.91 0.11L112.91 0.11L112.91 0.11Q112.63 0.11 112.41 0.03L112.41 0.03L112.41 0.03Q112.19-0.04 112.03-0.17L112.03-0.17L112.03-0.17Q111.86-0.30 111.75-0.47L111.75-0.47L111.75-0.47Q111.64-0.64 111.58-0.83L111.58-0.83L111.58-0.83Q111.04-0.56 110.50-0.36L110.50-0.36L110.50-0.36Q109.97-0.16 109.41-0.01L109.41-0.01L109.41-0.01Q108.84 0.13 108.24 0.21L108.24 0.21L108.24 0.21Q107.64 0.29 106.97 0.29L106.97 0.29L106.97 0.29Q106.63 0.29 106.25 0.27L106.25 0.27L106.25 0.27Q105.86 0.25 105.48 0.19L105.48 0.19L105.48 0.19Q105.09 0.12 104.73-0.02L104.73-0.02L104.73-0.02Q104.37-0.17 104.10-0.42L104.10-0.42L104.10-0.42Q103.83-0.68 103.67-1.06L103.67-1.06L103.67-1.06Q103.50-1.45 103.50-2.01ZM121.01 0.36L121.01 0.36L121.01 0.36Q120.94 0.20 120.88-0.08L120.88-0.08L120.88-0.08Q120.81-0.37 120.77-0.68L120.77-0.68L120.77-0.68Q120.73-0.99 120.71-1.28L120.71-1.28L120.71-1.28Q120.68-1.57 120.68-1.72L120.68-1.72L121.46-1.72L121.46-1.72Q121.63-1.43 122.12-1.20L122.12-1.20L122.12-1.20Q122.60-0.96 123.33-0.80L123.33-0.80L123.33-0.80Q124.06-0.63 125.00-0.55L125.00-0.55L125.00-0.55Q125.95-0.46 127.04-0.46L127.04-0.46L127.04-0.46Q127.67-0.46 128.03-0.62L128.03-0.62L128.03-0.62Q128.39-0.79 128.39-1.03L128.39-1.03L128.39-1.03Q128.39-1.25 128.17-1.38L128.17-1.38L128.17-1.38Q127.94-1.51 127.56-1.59L127.56-1.59L127.56-1.59Q127.17-1.67 126.65-1.71L126.65-1.71L126.65-1.71Q126.14-1.75 125.56-1.79L125.56-1.79L125.56-1.79Q124.98-1.83 124.37-1.88L124.37-1.88L124.37-1.88Q123.75-1.94 123.17-2.03L123.17-2.03L123.17-2.03Q122.59-2.13 122.08-2.29L122.08-2.29L122.08-2.29Q121.56-2.46 121.18-2.71L121.18-2.71L121.18-2.71Q120.79-2.97 120.56-3.34L120.56-3.34L120.56-3.34Q120.34-3.71 120.34-4.23L120.34-4.23L120.34-4.23Q120.34-4.72 120.53-5.10L120.53-5.10L120.53-5.10Q120.72-5.49 121.07-5.79L121.07-5.79L121.07-5.79Q121.42-6.09 121.90-6.30L121.90-6.30L121.90-6.30Q122.39-6.52 122.98-6.66L122.98-6.66L122.98-6.66Q123.56-6.80 124.24-6.86L124.24-6.86L124.24-6.86Q124.91-6.93 125.63-6.93L125.63-6.93L125.63-6.93Q126.17-6.93 126.75-6.91L126.75-6.91L126.75-6.91Q127.32-6.89 127.89-6.85L127.89-6.85L127.89-6.85Q128.45-6.82 128.98-6.78L128.98-6.78L128.98-6.78Q129.52-6.74 129.98-6.71L129.98-6.71L129.98-6.71Q130.44-6.67 130.82-6.65L130.82-6.65L130.82-6.65Q131.19-6.63 131.43-6.63L131.43-6.63L131.43-6.63Q131.66-6.63 131.91-6.64L131.91-6.64L131.91-6.64Q132.16-6.66 132.40-6.70L132.40-6.70L132.40-6.70Q132.63-6.73 132.84-6.79L132.84-6.79L132.84-6.79Q133.05-6.85 133.19-6.94L133.19-6.94L133.19-6.94Q133.26-6.79 133.32-6.53L133.32-6.53L133.32-6.53Q133.38-6.27 133.42-5.99L133.42-5.99L133.42-5.99Q133.47-5.71 133.49-5.45L133.49-5.45L133.49-5.45Q133.52-5.19 133.52-5.02L133.52-5.02L132.75-5.02L132.75-5.02Q132.63-5.23 132.17-5.46L132.17-5.46L132.17-5.46Q131.71-5.68 131.00-5.86L131.00-5.86L131.00-5.86Q130.29-6.04 129.37-6.16L129.37-6.16L129.37-6.16Q128.46-6.28 127.44-6.28L127.44-6.28L127.44-6.28Q127.33-6.28 127.17-6.26L127.17-6.26L127.17-6.26Q127.00-6.25 126.84-6.19L126.84-6.19L126.84-6.19Q126.69-6.14 126.57-6.03L126.57-6.03L126.57-6.03Q126.46-5.93 126.46-5.76L126.46-5.76L126.46-5.76Q126.46-5.55 126.67-5.41L126.67-5.41L126.67-5.41Q126.89-5.28 127.26-5.19L127.26-5.19L127.26-5.19Q127.64-5.10 128.13-5.04L128.13-5.04L128.13-5.04Q128.63-4.98 129.19-4.92L129.19-4.92L129.19-4.92Q129.75-4.86 130.34-4.78L130.34-4.78L130.34-4.78Q130.93-4.70 131.49-4.58L131.49-4.58L131.49-4.58Q132.04-4.46 132.54-4.27L132.54-4.27L132.54-4.27Q133.03-4.09 133.41-3.81L133.41-3.81L133.41-3.81Q133.78-3.54 134.00-3.15L134.00-3.15L134.00-3.15Q134.21-2.77 134.21-2.25L134.21-2.25L134.21-2.25Q134.21-1.70 133.84-1.24L133.84-1.24L133.84-1.24Q133.47-0.77 132.81-0.43L132.81-0.43L132.81-0.43Q132.14-0.10 131.23 0.10L131.23 0.10L131.23 0.10Q130.31 0.29 129.23 0.29L129.23 0.29L129.23 0.29Q128.34 0.29 127.47 0.24L127.47 0.24L127.47 0.24Q126.60 0.20 125.78 0.14L125.78 0.14L125.78 0.14Q124.95 0.08 124.17 0.04L124.17 0.04L124.17 0.04Q123.39-0.01 122.68-0.01L122.68-0.01L122.68-0.01Q122.46-0.01 122.22 0.01L122.22 0.01L122.22 0.01Q121.98 0.03 121.76 0.08L121.76 0.08L121.76 0.08Q121.54 0.12 121.34 0.19L121.34 0.19L121.34 0.19Q121.15 0.25 121.01 0.36ZM137.97-9.21L137.97-9.21L137.97-9.21Q137.97-9.53 138.22-9.82L138.22-9.82L138.22-9.82Q138.48-10.10 138.92-10.31L138.92-10.31L138.92-10.31Q139.36-10.52 139.96-10.64L139.96-10.64L139.96-10.64Q140.55-10.76 141.22-10.76L141.22-10.76L141.22-10.76Q141.89-10.76 142.48-10.64L142.48-10.64L142.48-10.64Q143.08-10.52 143.52-10.31L143.52-10.31L143.52-10.31Q143.96-10.10 144.22-9.82L144.22-9.82L144.22-9.82Q144.47-9.53 144.47-9.21L144.47-9.21L144.47-9.21Q144.47-8.89 144.22-8.61L144.22-8.61L144.22-8.61Q143.96-8.33 143.52-8.13L143.52-8.13L143.52-8.13Q143.08-7.92 142.48-7.79L142.48-7.79L142.48-7.79Q141.89-7.67 141.22-7.67L141.22-7.67L141.22-7.67Q140.55-7.67 139.96-7.79L139.96-7.79L139.96-7.79Q139.36-7.92 138.92-8.13L138.92-8.13L138.92-8.13Q138.48-8.33 138.22-8.61L138.22-8.61L138.22-8.61Q137.97-8.89 137.97-9.21ZM135.48 0L135.48-0.60L135.48-0.60Q136.35-0.63 136.95-0.82L136.95-0.82L136.95-0.82Q137.55-1.01 137.93-1.35L137.93-1.35L137.93-1.35Q138.30-1.68 138.46-2.16L138.46-2.16L138.46-2.16Q138.63-2.65 138.63-3.27L138.63-3.27L138.63-3.27Q138.63-3.90 138.46-4.36L138.46-4.36L138.46-4.36Q138.30-4.81 137.94-5.10L137.94-5.10L137.94-5.10Q137.59-5.39 137.03-5.52L137.03-5.52L137.03-5.52Q136.47-5.66 135.69-5.66L135.69-5.66L135.69-6.25L144.21-6.82L144.21-3.27L144.21-3.27Q144.21-2.65 144.31-2.16L144.31-2.16L144.31-2.16Q144.42-1.68 144.72-1.35L144.72-1.35L144.72-1.35Q145.02-1.01 145.56-0.82L145.56-0.82L145.56-0.82Q146.10-0.63 146.95-0.60L146.95-0.60L146.95 0L135.48 0ZM147.83-3.26L147.83-3.26L147.83-3.26Q147.83-3.93 148.14-4.46L148.14-4.46L148.14-4.46Q148.46-4.99 149.02-5.40L149.02-5.40L149.02-5.40Q149.58-5.81 150.36-6.10L150.36-6.10L150.36-6.10Q151.13-6.39 152.06-6.57L152.06-6.57L152.06-6.57Q152.98-6.76 154.03-6.85L154.03-6.85L154.03-6.85Q155.07-6.93 156.17-6.93L156.17-6.93L156.17-6.93Q156.91-6.93 157.64-6.87L157.64-6.87L157.64-6.87Q158.37-6.82 159.02-6.71L159.02-6.71L159.02-6.71Q159.66-6.60 160.21-6.43L160.21-6.43L160.21-6.43Q160.76-6.27 161.16-6.06L161.16-6.06L161.16-6.06Q161.56-5.85 161.79-5.59L161.79-5.59L161.79-5.59Q162.01-5.33 162.01-5.03L162.01-5.03L162.01-5.03Q162.01-4.72 161.82-4.43L161.82-4.43L161.82-4.43Q161.63-4.15 161.27-3.92L161.27-3.92L161.27-3.92Q160.91-3.69 160.38-3.56L160.38-3.56L160.38-3.56Q159.85-3.42 159.17-3.42L159.17-3.42L159.17-3.42Q158.53-3.42 157.96-3.52L157.96-3.52L157.96-3.52Q157.40-3.62 156.99-3.80L156.99-3.80L156.99-3.80Q156.58-3.98 156.34-4.22L156.34-4.22L156.34-4.22Q156.10-4.47 156.10-4.76L156.10-4.76L156.10-4.76Q156.10-5.01 156.26-5.25L156.26-5.25L156.26-5.25Q156.43-5.48 156.75-5.67L156.75-5.67L156.75-5.67Q157.07-5.86 157.54-5.97L157.54-5.97L157.54-5.97Q158.02-6.09 158.65-6.09L158.65-6.09L158.65-6.09Q158.29-6.19 157.90-6.23L157.90-6.23L157.90-6.23Q157.51-6.28 157.11-6.28L157.11-6.28L157.11-6.28Q156.53-6.28 155.99-6.15L155.99-6.15L155.99-6.15Q155.45-6.02 155.03-5.71L155.03-5.71L155.03-5.71Q154.60-5.40 154.35-4.89L154.35-4.89L154.35-4.89Q154.10-4.38 154.10-3.62L154.10-3.62L154.10-3.62Q154.10-3.12 154.24-2.72L154.24-2.72L154.24-2.72Q154.38-2.32 154.64-2.00L154.64-2.00L154.64-2.00Q154.89-1.68 155.24-1.45L155.24-1.45L155.24-1.45Q155.58-1.21 155.98-1.06L155.98-1.06L155.98-1.06Q156.39-0.91 156.83-0.83L156.83-0.83L156.83-0.83Q157.28-0.76 157.73-0.76L157.73-0.76L157.73-0.76Q158.46-0.76 159.14-0.88L159.14-0.88L159.14-0.88Q159.82-1.01 160.34-1.23L160.34-1.23L160.34-1.23Q160.86-1.45 161.17-1.74L161.17-1.74L161.17-1.74Q161.48-2.02 161.48-2.35L161.48-2.35L162.27-2.35L162.27-2.35Q162.27-1.91 162.04-1.54L162.04-1.54L162.04-1.54Q161.81-1.17 161.41-0.88L161.41-0.88L161.41-0.88Q161.00-0.59 160.44-0.37L160.44-0.37L160.44-0.37Q159.88-0.15 159.21-0.01L159.21-0.01L159.21-0.01Q158.54 0.14 157.78 0.21L157.78 0.21L157.78 0.21Q157.02 0.29 156.22 0.29L156.22 0.29L156.22 0.29Q155.07 0.29 154.01 0.22L154.01 0.22L154.01 0.22Q152.94 0.15 152.01-0.02L152.01-0.02L152.01-0.02Q151.07-0.18 150.31-0.44L150.31-0.44L150.31-0.44Q149.54-0.71 148.99-1.10L148.99-1.10L148.99-1.10Q148.44-1.50 148.14-2.03L148.14-2.03L148.14-2.03Q147.83-2.56 147.83-3.26Z" fill="#0b0101"></path></g></g><style>text {
  font-size: 64px;
  font-family: Arial Black;
  dominant-baseline: central;
  text-anchor: middle;
}</style></svg>