<svg width="190.57373046875px" height="37.3824951171875px" xmlns="http://www.w3.org/2000/svg" viewBox="154.713134765625 56.30875244140625 190.57373046875 37.3824951171875" style="background: rgb(255, 255, 255);" preserveAspectRatio="xMidYMid"><defs><filter id="editing-metal-beveled"><feGaussianBlur stdDeviation="4" in="SourceAlpha" result="blur"></feGaussianBlur><feSpecularLighting surfaceScale="5" specularConstant="0.8" specularExponent="7.5" lighting-color="#ffffff" in="blur" result="specular"><fePointLight x="-250" y="-50" z="300"></fePointLight></feSpecularLighting><feComposite operator="in" in="specular" in2="SourceAlpha" result="comp"></feComposite><feComposite in="SourceGraphic" in2="comp" operator="arithmetic" k1="0" k2="1" k3="1" k4="0"></feComposite></filter></defs><g filter="url(#editing-metal-beveled)"><g transform="translate(187.4465615749359, 79.19687509536743)"><path d="M9.23 0L4.02 0L4.02 0Q3.82-0.79 3.60-1.54L3.60-1.54L3.60-1.54Q3.37-2.29 3.16-2.91L3.16-2.91L3.16-2.91Q2.94-3.54 2.75-4.01L2.75-4.01L2.75-4.01Q2.56-4.49 2.43-4.74L2.43-4.74L2.43-4.74Q2.26-5.04 2.04-5.25L2.04-5.25L2.04-5.25Q1.82-5.46 1.56-5.60L1.56-5.60L1.56-5.60Q1.31-5.73 1.04-5.79L1.04-5.79L1.04-5.79Q0.77-5.84 0.49-5.84L0.49-5.84L0.49-6.30L8.24-6.30L8.24-5.83L8.24-5.83Q7.93-5.83 7.78-5.65L7.78-5.65L7.78-5.65Q7.63-5.47 7.63-5.19L7.63-5.19L7.63-5.19Q7.63-5.07 7.66-4.85L7.66-4.85L7.66-4.85Q7.70-4.63 7.76-4.33L7.76-4.33L7.76-4.33Q7.82-4.03 7.91-3.67L7.91-3.67L7.91-3.67Q8.01-3.31 8.13-2.91L8.13-2.91L8.13-2.91Q8.26-2.51 8.42-2.10L8.42-2.10L8.42-2.10Q8.58-1.68 8.77-1.28L8.77-1.28L8.77-1.28Q8.97-1.85 9.16-2.39L9.16-2.39L9.16-2.39Q9.34-2.93 9.48-3.41L9.48-3.41L9.48-3.41Q9.63-3.89 9.72-4.29L9.72-4.29L9.72-4.29Q9.80-4.70 9.80-5.01L9.80-5.01L9.80-5.01Q9.80-5.39 9.65-5.60L9.65-5.60L9.65-5.60Q9.50-5.82 9.15-5.82L9.15-5.82L9.15-6.30L15.87-6.30L15.87-5.83L15.87-5.83Q15.70-5.83 15.58-5.78L15.58-5.78L15.58-5.78Q15.46-5.73 15.38-5.64L15.38-5.64L15.38-5.64Q15.30-5.55 15.26-5.43L15.26-5.43L15.26-5.43Q15.21-5.31 15.21-5.19L15.21-5.19L15.21-5.19Q15.21-5.01 15.28-4.60L15.28-4.60L15.28-4.60Q15.34-4.19 15.47-3.65L15.47-3.65L15.47-3.65Q15.61-3.11 15.82-2.48L15.82-2.48L15.82-2.48Q16.03-1.85 16.32-1.23L16.32-1.23L16.32-1.23Q16.44-1.51 16.56-1.86L16.56-1.86L16.56-1.86Q16.68-2.20 16.80-2.56L16.80-2.56L16.80-2.56Q16.91-2.93 17.02-3.30L17.02-3.30L17.02-3.30Q17.12-3.68 17.20-4.02L17.20-4.02L17.20-4.02Q17.28-4.36 17.32-4.66L17.32-4.66L17.32-4.66Q17.37-4.95 17.37-5.17L17.37-5.17L17.37-5.17Q17.37-5.28 17.33-5.40L17.33-5.40L17.33-5.40Q17.29-5.52 17.20-5.62L17.20-5.62L17.20-5.62Q17.11-5.71 16.98-5.78L16.98-5.78L16.98-5.78Q16.85-5.84 16.67-5.84L16.67-5.84L16.67-6.30L20.56-6.30L20.56-5.84L20.56-5.84Q20.06-5.84 19.67-5.68L19.67-5.68L19.67-5.68Q19.27-5.52 18.95-5.19L18.95-5.19L18.95-5.19Q18.63-4.86 18.36-4.37L18.36-4.37L18.36-4.37Q18.09-3.88 17.83-3.23L17.83-3.23L17.83-3.23Q17.58-2.58 17.32-1.77L17.32-1.77L17.32-1.77Q17.06-0.97 16.75 0L16.75 0L11.67 0L11.67 0Q11.32-1.17 11.02-2.08L11.02-2.08L11.02-2.08Q10.73-2.99 10.47-3.70L10.47-3.70L10.47-3.70Q10.18-2.99 9.89-2.07L9.89-2.07L9.89-2.07Q9.60-1.15 9.23 0L9.23 0ZM21.44-1.08L21.44-1.08L21.44-1.08Q21.44-1.51 21.70-1.79L21.70-1.79L21.70-1.79Q21.97-2.08 22.40-2.24L22.40-2.24L22.40-2.24Q22.84-2.40 23.40-2.47L23.40-2.47L23.40-2.47Q23.96-2.53 24.55-2.53L24.55-2.53L24.55-2.53Q25.07-2.53 25.57-2.52L25.57-2.52L25.57-2.52Q26.07-2.51 26.52-2.50L26.52-2.50L26.52-2.50Q26.97-2.48 27.33-2.46L27.33-2.46L27.33-2.46Q27.70-2.43 27.95-2.40L27.95-2.40L27.95-3.46L27.95-3.46Q27.95-3.85 27.84-4.12L27.84-4.12L27.84-4.12Q27.73-4.39 27.50-4.55L27.50-4.55L27.50-4.55Q27.28-4.72 26.92-4.79L26.92-4.79L26.92-4.79Q26.57-4.86 26.09-4.86L26.09-4.86L26.09-4.86Q25.75-4.86 25.40-4.85L25.40-4.85L25.40-4.85Q25.05-4.84 24.76-4.82L24.76-4.82L24.76-4.82Q25.21-4.82 25.60-4.76L25.60-4.76L25.60-4.76Q25.98-4.69 26.25-4.57L26.25-4.57L26.25-4.57Q26.52-4.45 26.67-4.27L26.67-4.27L26.67-4.27Q26.82-4.10 26.82-3.89L26.82-3.89L26.82-3.89Q26.82-3.64 26.65-3.46L26.65-3.46L26.65-3.46Q26.47-3.28 26.16-3.15L26.16-3.15L26.16-3.15Q25.86-3.03 25.45-2.97L25.45-2.97L25.45-2.97Q25.03-2.91 24.56-2.91L24.56-2.91L24.56-2.91Q24.13-2.91 23.73-2.99L23.73-2.99L23.73-2.99Q23.34-3.07 23.04-3.22L23.04-3.22L23.04-3.22Q22.73-3.36 22.56-3.56L22.56-3.56L22.56-3.56Q22.38-3.75 22.38-3.98L22.38-3.98L22.38-3.98Q22.38-4.22 22.57-4.42L22.57-4.42L22.57-4.42Q22.75-4.61 23.07-4.76L23.07-4.76L23.07-4.76Q23.39-4.91 23.82-5.02L23.82-5.02L23.82-5.02Q24.24-5.13 24.71-5.20L24.71-5.20L24.71-5.20Q25.18-5.27 25.67-5.30L25.67-5.30L25.67-5.30Q26.17-5.33 26.63-5.33L26.63-5.33L26.63-5.33Q27.30-5.33 28.00-5.32L28.00-5.32L28.00-5.32Q28.69-5.31 29.34-5.25L29.34-5.25L29.34-5.25Q29.98-5.19 30.55-5.07L30.55-5.07L30.55-5.07Q31.11-4.95 31.53-4.73L31.53-4.73L31.53-4.73Q31.95-4.51 32.19-4.17L32.19-4.17L32.19-4.17Q32.44-3.84 32.44-3.36L32.44-3.36L32.44-2.19L32.44-2.19Q32.44-1.74 32.50-1.46L32.50-1.46L32.50-1.46Q32.56-1.18 32.67-1.02L32.67-1.02L32.67-1.02Q32.77-0.87 32.92-0.82L32.92-0.82L32.92-0.82Q33.07-0.77 33.23-0.77L33.23-0.77L33.23-0.77Q33.38-0.77 33.52-0.83L33.52-0.83L33.52-0.83Q33.66-0.89 33.76-1.01L33.76-1.01L33.76-1.01Q33.87-1.13 33.94-1.32L33.94-1.32L33.94-1.32Q34.01-1.50 34.02-1.74L34.02-1.74L34.57-1.74L34.57-1.74Q34.57-1.30 34.44-0.98L34.44-0.98L34.44-0.98Q34.31-0.67 34.07-0.45L34.07-0.45L34.07-0.45Q33.83-0.23 33.51-0.10L33.51-0.10L33.51-0.10Q33.18 0.03 32.79 0.10L32.79 0.10L32.79 0.10Q32.40 0.18 31.97 0.20L31.97 0.20L31.97 0.20Q31.53 0.22 31.08 0.22L31.08 0.22L31.08 0.22Q30.53 0.22 30.06 0.20L30.06 0.20L30.06 0.20Q29.59 0.17 29.22 0.09L29.22 0.09L29.22 0.09Q28.85 0.01 28.58-0.14L28.58-0.14L28.58-0.14Q28.32-0.29 28.16-0.55L28.16-0.55L28.16-0.55Q27.95-0.41 27.64-0.27L27.64-0.27L27.64-0.27Q27.32-0.13 26.85-0.02L26.85-0.02L26.85-0.02Q26.38 0.09 25.73 0.15L25.73 0.15L25.73 0.15Q25.07 0.22 24.19 0.22L24.19 0.22L24.19 0.22Q23.62 0.22 23.12 0.13L23.12 0.13L23.12 0.13Q22.62 0.04 22.24-0.12L22.24-0.12L22.24-0.12Q21.87-0.29 21.66-0.53L21.66-0.53L21.66-0.53Q21.44-0.77 21.44-1.08ZM25.76-1.32L25.76-1.32L25.76-1.32Q25.76-1.22 25.80-1.11L25.80-1.11L25.80-1.11Q25.84-1.00 25.94-0.91L25.94-0.91L25.94-0.91Q26.04-0.82 26.19-0.75L26.19-0.75L26.19-0.75Q26.34-0.69 26.57-0.69L26.57-0.69L26.57-0.69Q26.70-0.69 26.86-0.70L26.86-0.70L26.86-0.70Q27.02-0.70 27.20-0.73L27.20-0.73L27.20-0.73Q27.38-0.75 27.58-0.80L27.58-0.80L27.58-0.80Q27.78-0.84 28.00-0.93L28.00-0.93L28.00-0.93Q27.95-1.13 27.95-1.41L27.95-1.41L27.95-1.93L27.95-1.93Q27.74-1.94 27.52-1.95L27.52-1.95L27.52-1.95Q27.31-1.95 27.11-1.95L27.11-1.95L27.11-1.95Q26.78-1.95 26.52-1.92L26.52-1.92L26.52-1.92Q26.27-1.90 26.10-1.83L26.10-1.83L26.10-1.83Q25.93-1.76 25.85-1.64L25.85-1.64L25.85-1.64Q25.76-1.51 25.76-1.32ZM35.92 0.27L35.92 0.27L35.92 0.27Q35.87 0.16 35.82-0.06L35.82-0.06L35.82-0.06Q35.78-0.28 35.74-0.52L35.74-0.52L35.74-0.52Q35.71-0.76 35.69-0.98L35.69-0.98L35.69-0.98Q35.67-1.21 35.67-1.32L35.67-1.32L36.27-1.32L36.27-1.32Q36.41-1.10 36.78-0.92L36.78-0.92L36.78-0.92Q37.15-0.74 37.71-0.62L37.71-0.62L37.71-0.62Q38.27-0.49 39.00-0.42L39.00-0.42L39.00-0.42Q39.73-0.35 40.57-0.35L40.57-0.35L40.57-0.35Q41.05-0.35 41.33-0.48L41.33-0.48L41.33-0.48Q41.61-0.61 41.61-0.80L41.61-0.80L41.61-0.80Q41.61-0.96 41.43-1.06L41.43-1.06L41.43-1.06Q41.26-1.16 40.96-1.22L40.96-1.22L40.96-1.22Q40.66-1.28 40.27-1.32L40.27-1.32L40.27-1.32Q39.87-1.35 39.43-1.38L39.43-1.38L39.43-1.38Q38.98-1.41 38.51-1.45L38.51-1.45L38.51-1.45Q38.04-1.49 37.59-1.56L37.59-1.56L37.59-1.56Q37.14-1.64 36.75-1.77L36.75-1.77L36.75-1.77Q36.35-1.89 36.05-2.09L36.05-2.09L36.05-2.09Q35.76-2.29 35.58-2.57L35.58-2.57L35.58-2.57Q35.41-2.86 35.41-3.26L35.41-3.26L35.41-3.26Q35.41-3.63 35.56-3.93L35.56-3.93L35.56-3.93Q35.70-4.22 35.97-4.45L35.97-4.45L35.97-4.45Q36.24-4.68 36.61-4.85L36.61-4.85L36.61-4.85Q36.99-5.01 37.44-5.12L37.44-5.12L37.44-5.12Q37.89-5.23 38.41-5.28L38.41-5.28L38.41-5.28Q38.93-5.33 39.48-5.33L39.48-5.33L39.48-5.33Q39.90-5.33 40.34-5.31L40.34-5.31L40.34-5.31Q40.78-5.30 41.22-5.27L41.22-5.27L41.22-5.27Q41.65-5.24 42.06-5.21L42.06-5.21L42.06-5.21Q42.47-5.19 42.83-5.16L42.83-5.16L42.83-5.16Q43.18-5.13 43.47-5.11L43.47-5.11L43.47-5.11Q43.76-5.10 43.95-5.10L43.95-5.10L43.95-5.10Q44.12-5.10 44.31-5.11L44.31-5.11L44.31-5.11Q44.50-5.12 44.69-5.15L44.69-5.15L44.69-5.15Q44.87-5.18 45.03-5.22L45.03-5.22L45.03-5.22Q45.19-5.27 45.30-5.34L45.30-5.34L45.30-5.34Q45.35-5.22 45.40-5.02L45.40-5.02L45.40-5.02Q45.44-4.82 45.48-4.61L45.48-4.61L45.48-4.61Q45.51-4.39 45.53-4.19L45.53-4.19L45.53-4.19Q45.55-3.99 45.55-3.86L45.55-3.86L44.96-3.86L44.96-3.86Q44.86-4.02 44.51-4.20L44.51-4.20L44.51-4.20Q44.16-4.37 43.61-4.51L43.61-4.51L43.61-4.51Q43.06-4.65 42.36-4.74L42.36-4.74L42.36-4.74Q41.66-4.83 40.87-4.83L40.87-4.83L40.87-4.83Q40.79-4.83 40.66-4.82L40.66-4.82L40.66-4.82Q40.53-4.80 40.41-4.76L40.41-4.76L40.41-4.76Q40.29-4.72 40.21-4.64L40.21-4.64L40.21-4.64Q40.12-4.56 40.12-4.43L40.12-4.43L40.12-4.43Q40.12-4.27 40.28-4.17L40.28-4.17L40.28-4.17Q40.45-4.06 40.74-3.99L40.74-3.99L40.74-3.99Q41.03-3.93 41.41-3.88L41.41-3.88L41.41-3.88Q41.79-3.83 42.22-3.79L42.22-3.79L42.22-3.79Q42.65-3.74 43.10-3.68L43.10-3.68L43.10-3.68Q43.55-3.62 43.98-3.52L43.98-3.52L43.98-3.52Q44.41-3.43 44.79-3.29L44.79-3.29L44.79-3.29Q45.18-3.14 45.46-2.93L45.46-2.93L45.46-2.93Q45.75-2.72 45.92-2.42L45.92-2.42L45.92-2.42Q46.08-2.13 46.08-1.73L46.08-1.73L46.08-1.73Q46.08-1.31 45.80-0.95L45.80-0.95L45.80-0.95Q45.51-0.60 45-0.33L45-0.33L45-0.33Q44.49-0.07 43.78 0.07L43.78 0.07L43.78 0.07Q43.08 0.22 42.25 0.22L42.25 0.22L42.25 0.22Q41.56 0.22 40.90 0.19L40.90 0.19L40.90 0.19Q40.23 0.15 39.59 0.11L39.59 0.11L39.59 0.11Q38.96 0.06 38.36 0.03L38.36 0.03L38.36 0.03Q37.76-0.00 37.21-0.00L37.21-0.00L37.21-0.00Q37.04-0.00 36.86 0.01L36.86 0.01L36.86 0.01Q36.67 0.02 36.50 0.06L36.50 0.06L36.50 0.06Q36.33 0.09 36.18 0.14L36.18 0.14L36.18 0.14Q36.03 0.20 35.92 0.27ZM48.97-7.08L48.97-7.08L48.97-7.08Q48.97-7.33 49.17-7.55L49.17-7.55L49.17-7.55Q49.37-7.77 49.70-7.93L49.70-7.93L49.70-7.93Q50.04-8.09 50.50-8.18L50.50-8.18L50.50-8.18Q50.96-8.28 51.47-8.28L51.47-8.28L51.47-8.28Q51.99-8.28 52.44-8.18L52.44-8.18L52.44-8.18Q52.90-8.09 53.24-7.93L53.24-7.93L53.24-7.93Q53.58-7.77 53.78-7.55L53.78-7.55L53.78-7.55Q53.97-7.33 53.97-7.08L53.97-7.08L53.97-7.08Q53.97-6.84 53.78-6.63L53.78-6.63L53.78-6.63Q53.58-6.41 53.24-6.25L53.24-6.25L53.24-6.25Q52.90-6.09 52.44-6.00L52.44-6.00L52.44-6.00Q51.99-5.90 51.47-5.90L51.47-5.90L51.47-5.90Q50.96-5.90 50.50-6.00L50.50-6.00L50.50-6.00Q50.04-6.09 49.70-6.25L49.70-6.25L49.70-6.25Q49.37-6.41 49.17-6.63L49.17-6.63L49.17-6.63Q48.97-6.84 48.97-7.08ZM47.06 0L47.06-0.46L47.06-0.46Q47.73-0.48 48.19-0.63L48.19-0.63L48.19-0.63Q48.65-0.78 48.94-1.04L48.94-1.04L48.94-1.04Q49.22-1.29 49.35-1.67L49.35-1.67L49.35-1.67Q49.48-2.04 49.48-2.51L49.48-2.51L49.48-2.51Q49.48-3.00 49.35-3.35L49.35-3.35L49.35-3.35Q49.22-3.70 48.95-3.92L48.95-3.92L48.95-3.92Q48.68-4.15 48.25-4.25L48.25-4.25L48.25-4.25Q47.82-4.35 47.22-4.35L47.22-4.35L47.22-4.81L53.77-5.25L53.77-2.51L53.77-2.51Q53.77-2.04 53.85-1.67L53.85-1.67L53.85-1.67Q53.94-1.29 54.17-1.04L54.17-1.04L54.17-1.04Q54.40-0.78 54.81-0.63L54.81-0.63L54.81-0.63Q55.22-0.48 55.88-0.46L55.88-0.46L55.88 0L47.06 0ZM60.77 0L60.77-0.46L60.77-0.46Q61.50-0.48 61.98-0.63L61.98-0.63L61.98-0.63Q62.47-0.78 62.75-1.10L62.75-1.10L62.75-1.10Q63.04-1.42 63.16-1.95L63.16-1.95L63.16-1.95Q63.28-2.47 63.28-3.26L63.28-3.26L63.28-3.26Q63.28-4.06 63.13-4.57L63.13-4.57L63.13-4.57Q62.98-5.07 62.66-5.35L62.66-5.35L62.66-5.35Q62.35-5.64 61.86-5.74L61.86-5.74L61.86-5.74Q61.37-5.84 60.70-5.84L60.70-5.84L60.70-6.30L67.89-6.30L69.52-4.43L70.66-6.30L77.81-6.30L77.81-5.84L77.81-5.84Q77.13-5.84 76.66-5.74L76.66-5.74L76.66-5.74Q76.18-5.64 75.88-5.35L75.88-5.35L75.88-5.35Q75.58-5.07 75.44-4.57L75.44-4.57L75.44-4.57Q75.30-4.06 75.30-3.26L75.30-3.26L75.30-3.26Q75.30-2.47 75.42-1.95L75.42-1.95L75.42-1.95Q75.53-1.42 75.82-1.10L75.82-1.10L75.82-1.10Q76.11-0.78 76.59-0.63L76.59-0.63L76.59-0.63Q77.08-0.48 77.81-0.46L77.81-0.46L77.81 0L68.59 0L68.59-0.46L68.59-0.46Q69.07-0.47 69.42-0.58L69.42-0.58L69.42-0.58Q69.76-0.69 69.99-0.87L69.99-0.87L69.99-0.87Q70.22-1.06 70.35-1.31L70.35-1.31L70.35-1.31Q70.49-1.57 70.55-1.87L70.55-1.87L70.55-1.87Q70.62-2.18 70.64-2.53L70.64-2.53L70.64-2.53Q70.66-2.88 70.66-3.26L70.66-3.26L70.66-5.10L67.35 0.18L63.87-4.14L63.87-3.26L63.87-3.26Q63.87-2.88 63.89-2.53L63.89-2.53L63.89-2.53Q63.91-2.18 63.97-1.87L63.97-1.87L63.97-1.87Q64.04-1.57 64.18-1.31L64.18-1.31L64.18-1.31Q64.31-1.06 64.54-0.88L64.54-0.88L64.54-0.88Q64.77-0.69 65.11-0.58L65.11-0.58L65.11-0.58Q65.45-0.47 65.94-0.46L65.94-0.46L65.94 0L60.77 0ZM79.62-1.54L79.62-1.54L79.62-1.54Q79.62-1.69 79.63-1.89L79.63-1.89L79.63-1.89Q79.64-2.08 79.66-2.28L79.66-2.28L79.66-2.28Q79.67-2.49 79.69-2.68L79.69-2.68L79.69-2.68Q79.70-2.88 79.70-3.04L79.70-3.04L79.70-3.04Q79.70-3.29 79.66-3.54L79.66-3.54L79.66-3.54Q79.62-3.79 79.50-3.99L79.50-3.99L79.50-3.99Q79.37-4.19 79.12-4.32L79.12-4.32L79.12-4.32Q78.87-4.45 78.44-4.45L78.44-4.45L78.44-4.45Q78.29-4.45 78.12-4.43L78.12-4.43L78.12-4.89L84.13-5.33L84.13-2.47L84.13-2.47Q84.13-2.10 84.17-1.83L84.17-1.83L84.17-1.83Q84.21-1.56 84.32-1.38L84.32-1.38L84.32-1.38Q84.43-1.20 84.62-1.11L84.62-1.11L84.62-1.11Q84.81-1.02 85.11-1.02L85.11-1.02L85.11-1.02Q85.26-1.02 85.43-1.05L85.43-1.05L85.43-1.05Q85.60-1.07 85.77-1.13L85.77-1.13L85.77-3.01L85.77-3.01Q85.77-3.44 85.69-3.72L85.69-3.72L85.69-3.72Q85.61-4.00 85.47-4.18L85.47-4.18L85.47-4.18Q85.34-4.36 85.15-4.46L85.15-4.46L85.15-4.46Q84.97-4.55 84.77-4.60L84.77-4.60L84.77-4.98L90.06-5.42L90.06-2.29L90.06-2.29Q90.06-1.81 90.12-1.47L90.12-1.47L90.12-1.47Q90.18-1.13 90.37-0.92L90.37-0.92L90.37-0.92Q90.55-0.70 90.90-0.59L90.90-0.59L90.90-0.59Q91.25-0.47 91.83-0.45L91.83-0.45L91.86 0.01L91.86 0.01Q91.53 0.01 91.10 0.01L91.10 0.01L91.10 0.01Q90.66 0.02 90.19 0.03L90.19 0.03L90.19 0.03Q89.72 0.04 89.24 0.05L89.24 0.05L89.24 0.05Q88.75 0.06 88.30 0.07L88.30 0.07L88.30 0.07Q87.86 0.08 87.48 0.08L87.48 0.08L87.48 0.08Q87.10 0.09 86.86 0.09L86.86 0.09L86.86 0.09Q86.64 0.09 86.47 0.03L86.47 0.03L86.47 0.03Q86.30-0.03 86.17-0.13L86.17-0.13L86.17-0.13Q86.04-0.23 85.96-0.36L85.96-0.36L85.96-0.36Q85.87-0.49 85.83-0.63L85.83-0.63L85.83-0.63Q85.42-0.43 85.00-0.28L85.00-0.28L85.00-0.28Q84.59-0.12 84.16-0.01L84.16-0.01L84.16-0.01Q83.73 0.10 83.26 0.16L83.26 0.16L83.26 0.16Q82.80 0.22 82.29 0.22L82.29 0.22L82.29 0.22Q82.03 0.22 81.73 0.21L81.73 0.21L81.73 0.21Q81.43 0.20 81.14 0.14L81.14 0.14L81.14 0.14Q80.84 0.09 80.56-0.02L80.56-0.02L80.56-0.02Q80.29-0.13 80.08-0.32L80.08-0.32L80.08-0.32Q79.87-0.52 79.74-0.82L79.74-0.82L79.74-0.82Q79.62-1.11 79.62-1.54ZM93.08 0.27L93.08 0.27L93.08 0.27Q93.03 0.16 92.98-0.06L92.98-0.06L92.98-0.06Q92.93-0.28 92.90-0.52L92.90-0.52L92.90-0.52Q92.87-0.76 92.85-0.98L92.85-0.98L92.85-0.98Q92.83-1.21 92.83-1.32L92.83-1.32L93.43-1.32L93.43-1.32Q93.56-1.10 93.94-0.92L93.94-0.92L93.94-0.92Q94.31-0.74 94.87-0.62L94.87-0.62L94.87-0.62Q95.43-0.49 96.16-0.42L96.16-0.42L96.16-0.42Q96.88-0.35 97.72-0.35L97.72-0.35L97.72-0.35Q98.21-0.35 98.49-0.48L98.49-0.48L98.49-0.48Q98.76-0.61 98.76-0.80L98.76-0.80L98.76-0.80Q98.76-0.96 98.59-1.06L98.59-1.06L98.59-1.06Q98.42-1.16 98.12-1.22L98.12-1.22L98.12-1.22Q97.82-1.28 97.43-1.32L97.43-1.32L97.43-1.32Q97.03-1.35 96.58-1.38L96.58-1.38L96.58-1.38Q96.14-1.41 95.67-1.45L95.67-1.45L95.67-1.45Q95.20-1.49 94.75-1.56L94.75-1.56L94.75-1.56Q94.30-1.64 93.91-1.77L93.91-1.77L93.91-1.77Q93.51-1.89 93.21-2.09L93.21-2.09L93.21-2.09Q92.92-2.29 92.74-2.57L92.74-2.57L92.74-2.57Q92.57-2.86 92.57-3.26L92.57-3.26L92.57-3.26Q92.57-3.63 92.71-3.93L92.71-3.93L92.71-3.93Q92.86-4.22 93.13-4.45L93.13-4.45L93.13-4.45Q93.40-4.68 93.77-4.85L93.77-4.85L93.77-4.85Q94.15-5.01 94.60-5.12L94.60-5.12L94.60-5.12Q95.05-5.23 95.57-5.28L95.57-5.28L95.57-5.28Q96.08-5.33 96.64-5.33L96.64-5.33L96.64-5.33Q97.06-5.33 97.50-5.31L97.50-5.31L97.50-5.31Q97.94-5.30 98.37-5.27L98.37-5.27L98.37-5.27Q98.81-5.24 99.22-5.21L99.22-5.21L99.22-5.21Q99.63-5.19 99.99-5.16L99.99-5.16L99.99-5.16Q100.34-5.13 100.63-5.11L100.63-5.11L100.63-5.11Q100.92-5.10 101.10-5.10L101.10-5.10L101.10-5.10Q101.28-5.10 101.47-5.11L101.47-5.11L101.47-5.11Q101.66-5.12 101.84-5.15L101.84-5.15L101.84-5.15Q102.03-5.18 102.19-5.22L102.19-5.22L102.19-5.22Q102.34-5.27 102.46-5.34L102.46-5.34L102.46-5.34Q102.51-5.22 102.56-5.02L102.56-5.02L102.56-5.02Q102.60-4.82 102.63-4.61L102.63-4.61L102.63-4.61Q102.67-4.39 102.69-4.19L102.69-4.19L102.69-4.19Q102.71-3.99 102.71-3.86L102.71-3.86L102.12-3.86L102.12-3.86Q102.02-4.02 101.67-4.20L101.67-4.20L101.67-4.20Q101.31-4.37 100.77-4.51L100.77-4.51L100.77-4.51Q100.22-4.65 99.52-4.74L99.52-4.74L99.52-4.74Q98.82-4.83 98.03-4.83L98.03-4.83L98.03-4.83Q97.95-4.83 97.82-4.82L97.82-4.82L97.82-4.82Q97.69-4.80 97.57-4.76L97.57-4.76L97.57-4.76Q97.45-4.72 97.36-4.64L97.36-4.64L97.36-4.64Q97.28-4.56 97.28-4.43L97.28-4.43L97.28-4.43Q97.28-4.27 97.44-4.17L97.44-4.17L97.44-4.17Q97.61-4.06 97.90-3.99L97.90-3.99L97.90-3.99Q98.18-3.93 98.56-3.88L98.56-3.88L98.56-3.88Q98.95-3.83 99.38-3.79L99.38-3.79L99.38-3.79Q99.80-3.74 100.26-3.68L100.26-3.68L100.26-3.68Q100.71-3.62 101.14-3.52L101.14-3.52L101.14-3.52Q101.57-3.43 101.95-3.29L101.95-3.29L101.95-3.29Q102.33-3.14 102.62-2.93L102.62-2.93L102.62-2.93Q102.91-2.72 103.08-2.42L103.08-2.42L103.08-2.42Q103.24-2.13 103.24-1.73L103.24-1.73L103.24-1.73Q103.24-1.31 102.96-0.95L102.96-0.95L102.96-0.95Q102.67-0.60 102.16-0.33L102.16-0.33L102.16-0.33Q101.65-0.07 100.94 0.07L100.94 0.07L100.94 0.07Q100.24 0.22 99.40 0.22L99.40 0.22L99.40 0.22Q98.72 0.22 98.05 0.19L98.05 0.19L98.05 0.19Q97.39 0.15 96.75 0.11L96.75 0.11L96.75 0.11Q96.12 0.06 95.52 0.03L95.52 0.03L95.52 0.03Q94.92-0.00 94.37-0.00L94.37-0.00L94.37-0.00Q94.20-0.00 94.02 0.01L94.02 0.01L94.02 0.01Q93.83 0.02 93.66 0.06L93.66 0.06L93.66 0.06Q93.49 0.09 93.34 0.14L93.34 0.14L93.34 0.14Q93.19 0.20 93.08 0.27ZM106.13-7.08L106.13-7.08L106.13-7.08Q106.13-7.33 106.33-7.55L106.33-7.55L106.33-7.55Q106.52-7.77 106.86-7.93L106.86-7.93L106.86-7.93Q107.20-8.09 107.66-8.18L107.66-8.18L107.66-8.18Q108.12-8.28 108.63-8.28L108.63-8.28L108.63-8.28Q109.15-8.28 109.60-8.18L109.60-8.18L109.60-8.18Q110.06-8.09 110.40-7.93L110.40-7.93L110.40-7.93Q110.74-7.77 110.94-7.55L110.94-7.55L110.94-7.55Q111.13-7.33 111.13-7.08L111.13-7.08L111.13-7.08Q111.13-6.84 110.94-6.63L110.94-6.63L110.94-6.63Q110.74-6.41 110.40-6.25L110.40-6.25L110.40-6.25Q110.06-6.09 109.60-6.00L109.60-6.00L109.60-6.00Q109.15-5.90 108.63-5.90L108.63-5.90L108.63-5.90Q108.12-5.90 107.66-6.00L107.66-6.00L107.66-6.00Q107.20-6.09 106.86-6.25L106.86-6.25L106.86-6.25Q106.52-6.41 106.33-6.63L106.33-6.63L106.33-6.63Q106.13-6.84 106.13-7.08ZM104.21 0L104.21-0.46L104.21-0.46Q104.89-0.48 105.35-0.63L105.35-0.63L105.35-0.63Q105.81-0.78 106.10-1.04L106.10-1.04L106.10-1.04Q106.38-1.29 106.51-1.67L106.51-1.67L106.51-1.67Q106.64-2.04 106.64-2.51L106.64-2.51L106.64-2.51Q106.64-3.00 106.51-3.35L106.51-3.35L106.51-3.35Q106.38-3.70 106.11-3.92L106.11-3.92L106.11-3.92Q105.83-4.15 105.41-4.25L105.41-4.25L105.41-4.25Q104.98-4.35 104.38-4.35L104.38-4.35L104.38-4.81L110.93-5.25L110.93-2.51L110.93-2.51Q110.93-2.04 111.01-1.67L111.01-1.67L111.01-1.67Q111.09-1.29 111.33-1.04L111.33-1.04L111.33-1.04Q111.56-0.78 111.97-0.63L111.97-0.63L111.97-0.63Q112.38-0.48 113.04-0.46L113.04-0.46L113.04 0L104.21 0ZM113.72-2.51L113.72-2.51L113.72-2.51Q113.72-3.02 113.96-3.43L113.96-3.43L113.96-3.43Q114.20-3.84 114.63-4.15L114.63-4.15L114.63-4.15Q115.06-4.47 115.66-4.69L115.66-4.69L115.66-4.69Q116.25-4.91 116.97-5.06L116.97-5.06L116.97-5.06Q117.68-5.20 118.48-5.27L118.48-5.27L118.48-5.27Q119.29-5.33 120.13-5.33L120.13-5.33L120.13-5.33Q120.70-5.33 121.26-5.29L121.26-5.29L121.26-5.29Q121.82-5.24 122.32-5.16L122.32-5.16L122.32-5.16Q122.82-5.07 123.24-4.95L123.24-4.95L123.24-4.95Q123.66-4.82 123.97-4.66L123.97-4.66L123.97-4.66Q124.28-4.50 124.45-4.30L124.45-4.30L124.45-4.30Q124.62-4.10 124.62-3.87L124.62-3.87L124.62-3.87Q124.62-3.63 124.48-3.41L124.48-3.41L124.48-3.41Q124.33-3.19 124.05-3.02L124.05-3.02L124.05-3.02Q123.77-2.84 123.37-2.74L123.37-2.74L123.37-2.74Q122.96-2.63 122.44-2.63L122.44-2.63L122.44-2.63Q121.94-2.63 121.51-2.71L121.51-2.71L121.51-2.71Q121.08-2.79 120.76-2.92L120.76-2.92L120.76-2.92Q120.44-3.06 120.26-3.25L120.26-3.25L120.26-3.25Q120.08-3.44 120.08-3.66L120.08-3.66L120.08-3.66Q120.08-3.85 120.20-4.04L120.20-4.04L120.20-4.04Q120.33-4.22 120.57-4.36L120.57-4.36L120.57-4.36Q120.82-4.51 121.19-4.59L121.19-4.59L121.19-4.59Q121.55-4.68 122.04-4.68L122.04-4.68L122.04-4.68Q121.76-4.76 121.46-4.79L121.46-4.79L121.46-4.79Q121.16-4.83 120.85-4.83L120.85-4.83L120.85-4.83Q120.41-4.83 119.99-4.73L119.99-4.73L119.99-4.73Q119.58-4.63 119.25-4.39L119.25-4.39L119.25-4.39Q118.93-4.16 118.73-3.76L118.73-3.76L118.73-3.76Q118.54-3.37 118.54-2.78L118.54-2.78L118.54-2.78Q118.54-2.40 118.65-2.09L118.65-2.09L118.65-2.09Q118.75-1.78 118.95-1.54L118.95-1.54L118.95-1.54Q119.15-1.29 119.41-1.11L119.41-1.11L119.41-1.11Q119.68-0.93 119.99-0.82L119.99-0.82L119.99-0.82Q120.30-0.70 120.64-0.64L120.64-0.64L120.64-0.64Q120.99-0.58 121.33-0.58L121.33-0.58L121.33-0.58Q121.89-0.58 122.42-0.68L122.42-0.68L122.42-0.68Q122.94-0.78 123.34-0.94L123.34-0.94L123.34-0.94Q123.74-1.11 123.98-1.34L123.98-1.34L123.98-1.34Q124.22-1.56 124.22-1.81L124.22-1.81L124.82-1.81L124.82-1.81Q124.82-1.47 124.65-1.19L124.65-1.19L124.65-1.19Q124.47-0.90 124.16-0.68L124.16-0.68L124.16-0.68Q123.85-0.45 123.42-0.29L123.42-0.29L123.42-0.29Q122.98-0.12 122.47-0.00L122.47-0.00L122.47-0.00Q121.95 0.11 121.37 0.16L121.37 0.16L121.37 0.16Q120.79 0.22 120.17 0.22L120.17 0.22L120.17 0.22Q119.29 0.22 118.47 0.17L118.47 0.17L118.47 0.17Q117.65 0.11 116.93-0.01L116.93-0.01L116.93-0.01Q116.21-0.14 115.62-0.34L115.62-0.34L115.62-0.34Q115.03-0.55 114.61-0.85L114.61-0.85L114.61-0.85Q114.18-1.15 113.95-1.56L113.95-1.56L113.95-1.56Q113.72-1.97 113.72-2.51Z" fill="#0b0101"></path></g></g><style>text {
  font-size: 64px;
  font-family: Arial Black;
  dominant-baseline: central;
  text-anchor: middle;
}</style></svg>